<svg width="46" height="46" viewBox="0 0 46 46" fill="none" xmlns="http://www.w3.org/2000/svg">
<path d="M31.6118 0.25L31.6284 0.251953C33.0402 0.448727 34.45 0.720015 35.8032 1.25684C37.5285 1.94037 39.0933 2.88301 40.4917 4.11719C42.2245 5.64755 43.5568 7.46687 44.4673 9.58594C45.6042 12.2325 45.9954 14.989 45.6001 17.8594C45.2951 20.0712 44.5666 22.1241 43.3765 24.0088L43.3755 24.0078C41.6028 26.8158 39.1768 28.8706 36.106 30.1416C34.1778 30.9398 32.1541 31.346 30.0669 31.3066C26.842 31.2469 23.8765 30.322 21.231 28.4307C21.0532 28.3038 20.9631 28.2312 20.8794 28.1748C20.8674 28.1667 20.8566 28.1614 20.8481 28.1562C20.8399 28.1636 20.829 28.1727 20.8169 28.1846C20.7401 28.2602 20.6691 28.3429 20.5122 28.5029C20.1229 28.9002 19.7283 29.2982 19.3208 29.6836C19.2316 29.7678 19.2247 29.8052 19.2241 29.8105C19.2237 29.8147 19.2226 29.8509 19.2935 29.9424L19.2944 29.9434C19.5578 30.2835 19.7778 30.6595 19.9341 31.0713C20.0185 31.2935 20.0596 31.5237 20.0181 31.7539C19.9758 31.9877 19.8526 32.1952 19.6558 32.3779C19.2323 32.7702 18.8279 33.1848 18.4263 33.6074C18.3246 33.7144 18.1817 33.8441 17.9897 33.8564C17.8382 33.8662 17.7104 33.8007 17.603 33.7139L17.5024 33.6221C15.8368 31.9389 14.1565 30.2707 12.479 28.5967C12.3818 28.4997 12.2935 28.412 12.2319 28.335C12.1713 28.2591 12.1006 28.1515 12.1011 28.0127C12.1015 27.8745 12.1723 27.7673 12.2329 27.6914C12.2948 27.614 12.3829 27.525 12.481 27.4268C12.8618 27.045 13.2362 26.6968 13.5874 26.3145C13.7688 26.1167 13.9755 25.9922 14.2095 25.9492C14.4396 25.907 14.6703 25.9479 14.8931 26.0322C15.3237 26.1947 15.7029 26.4375 16.0522 26.6895L16.1401 26.7441C16.1543 26.7506 16.1617 26.7517 16.1636 26.752C16.159 26.7518 16.1573 26.7536 16.1626 26.751C16.1705 26.747 16.1894 26.7356 16.2192 26.7051V26.7041C16.7319 26.18 17.2532 25.6635 17.7817 25.1543C17.7948 25.1417 17.8012 25.1307 17.8062 25.124C17.8028 25.1174 17.7988 25.1074 17.7905 25.0947C17.7717 25.0658 17.7503 25.0382 17.7173 24.9941C16.718 23.6618 15.9672 22.2001 15.4507 20.6211C15.0426 19.3745 14.8065 18.1005 14.7095 16.791C14.5317 14.3994 14.9343 12.1145 15.8081 9.9082C16.7294 7.57959 18.1822 5.62603 20.0601 3.99316C22.0635 2.25216 24.3746 1.11332 26.9663 0.558594L27.4116 0.47168C27.8593 0.391439 28.3105 0.327655 28.7427 0.254883L28.7632 0.251953H28.7837C29.7207 0.250197 30.6575 0.25 31.5942 0.25H31.6118ZM25.4526 13.5527C24.9711 14.3649 24.4877 15.168 24.0259 15.9854C23.8983 16.2112 23.7405 16.3947 23.5317 16.5176C23.3219 16.641 23.0814 16.6906 22.812 16.6846C21.809 16.661 20.8048 16.671 19.7954 16.6807C19.4966 16.6834 19.2936 16.6854 19.1499 16.7031C19.0303 16.7179 18.9954 16.7393 18.9888 16.7441C18.9927 16.7391 18.9693 16.7625 18.979 16.9102C18.9885 17.0538 19.0231 17.2511 19.0747 17.542C19.5279 20.0931 20.6378 22.277 22.5522 24.0361C25.0494 26.3313 28.0128 27.2906 31.3501 26.9697C34.5788 26.6597 37.2025 25.1503 39.1938 22.5635C40.424 20.9658 41.1062 19.1358 41.3979 17.1396C41.4239 16.9618 41.4367 16.8456 41.436 16.7646C41.4358 16.7363 41.4321 16.718 41.4302 16.707C41.4192 16.7036 41.4011 16.6975 41.3726 16.6934C41.3322 16.6874 41.2828 16.6839 41.2212 16.6816L40.9946 16.6787C39.1723 16.6794 37.3565 16.6601 35.5415 16.6729L33.7261 16.6982C33.284 16.7081 32.8606 16.6703 32.522 16.4756C32.3516 16.3776 32.2136 16.2452 32.105 16.0781C31.8347 17.1823 31.5654 18.2865 31.2954 19.3906C30.9886 20.6453 30.6818 21.9003 30.3745 23.1553C30.3035 23.446 30.1905 23.6906 30.0132 23.8652C29.8296 24.0461 29.5985 24.1301 29.3394 24.1367C29.0269 24.1444 28.7847 24.0424 28.6069 23.8564C28.44 23.6816 28.3482 23.4511 28.2856 23.2383C27.6246 20.9821 26.9682 18.7243 26.3091 16.4688L25.4526 13.5527ZM40.4253 10.9844C38.5866 7.02203 34.3451 4.18491 29.4468 4.52832C26.5705 4.73039 24.1328 5.85595 22.1353 7.88184C20.4383 9.60306 19.414 11.6757 19.0737 14.0625L19.0151 14.5439C19.0109 14.5847 19.0103 14.6139 19.0112 14.6338C19.0349 14.6367 19.0682 14.64 19.1167 14.6396C19.7522 14.6338 20.489 14.5543 21.1724 14.6611C21.7068 14.7446 22.0868 14.6714 22.3823 14.4873C22.6837 14.2994 22.9328 13.9743 23.1597 13.4873C23.6393 12.4586 24.3054 11.4955 24.8628 10.5479C25.0633 10.2072 25.3881 9.94283 25.855 9.99121C26.3325 10.0411 26.613 10.3684 26.7544 10.751H26.7534C26.7875 10.8417 26.8157 10.9331 26.8403 11.0176L27.6021 13.625L28.3638 16.2314L29.2378 19.2139C29.2917 19.0003 29.3454 18.7946 29.396 18.5879C29.9103 16.4905 30.4217 14.3909 30.937 12.293L30.9819 12.1328C31.034 11.9723 31.1094 11.8134 31.2261 11.6816C31.39 11.4965 31.617 11.3852 31.9126 11.3701C32.2197 11.3542 32.4654 11.4452 32.6509 11.6221C32.8262 11.7893 32.9275 12.0148 32.9976 12.2314C33.2062 12.8777 33.4034 13.5084 33.6118 14.1504C33.668 14.3236 33.7044 14.4347 33.7397 14.5137C33.7738 14.5897 33.794 14.6056 33.7993 14.6094C33.8063 14.6142 33.8305 14.6275 33.9165 14.6357C34.0063 14.6443 34.1261 14.6451 34.311 14.6455C36.6183 14.6508 38.9281 14.6508 41.2378 14.6807C41.3254 14.6818 41.3775 14.6745 41.4058 14.666C41.411 14.6644 41.4146 14.6613 41.4175 14.6602C41.4184 14.6558 41.4196 14.6496 41.4204 14.6416C41.422 14.6251 41.4218 14.6043 41.4204 14.5781L41.4106 14.4834C41.2393 13.2659 40.9392 12.0919 40.4253 10.9844Z" fill="#02A653" stroke="#02A653" stroke-width="0.5"/>
<path d="M10.8564 29.27C11.0765 29.2632 11.251 29.4015 11.3945 29.5474C13.0668 31.246 14.7547 32.9296 16.4502 34.605L16.5488 34.7124C16.6414 34.8257 16.7106 34.9589 16.7031 35.1167C16.696 35.2676 16.6196 35.3931 16.5312 35.4966L16.4414 35.5923L6.68848 45.3325C6.61901 45.402 6.54446 45.4602 6.47656 45.5103C6.40241 45.5649 6.34788 45.6012 6.28613 45.6489L6.21875 45.7017H5.5625L5.52051 45.686C4.09717 45.1642 3.06141 44.1366 2.0918 43.1196C1.5136 42.5128 0.951344 41.864 0.549805 41.0864L0.387695 40.7456C0.267911 40.4689 0.218629 40.1977 0.271484 39.9282C0.324279 39.6591 0.472966 39.4235 0.691406 39.2065L5.52344 34.3862C7.13182 32.7773 8.73755 31.1658 10.3418 29.5532C10.4755 29.4186 10.6431 29.2768 10.8564 29.27Z" fill="#02A653" stroke="#02A653" stroke-width="0.5"/>
</svg>
