<svg width="44" height="50" viewBox="0 0 44 50" fill="none" xmlns="http://www.w3.org/2000/svg">
<mask id="path-1-outside-1_54_838" maskUnits="userSpaceOnUse" x="0" y="0" width="36" height="41" fill="black">
<rect fill="white" width="36" height="41"/>
<path d="M25.0835 13.9676C25.5088 14.0399 25.7223 14.4034 26.0241 14.639C26.3814 14.9196 26.6885 15.2628 27.0396 15.5513C27.3387 15.7975 27.3343 16.0278 27.0864 16.2916C26.8755 16.5166 26.6699 16.7477 26.452 16.9657C26.2641 17.1536 26.2482 17.3354 26.4079 17.5498C26.7052 17.9512 26.9946 18.3588 27.2822 18.7673C27.4111 18.95 27.5558 19.0038 27.7719 18.9103C28.1363 18.7541 28.514 18.6288 28.8783 18.4718C29.0839 18.3835 29.2022 18.4118 29.2869 18.6306C29.5577 19.3294 29.8383 20.0246 30.1215 20.7181C30.2089 20.9325 30.1798 21.0825 29.9504 21.1778C29.7739 21.251 29.608 21.3481 29.4342 21.4275C28.7284 21.7495 28.716 21.7504 28.8422 22.5339C28.9092 22.9504 28.8281 23.4692 29.1122 23.7542C29.3936 24.0365 29.8974 23.8503 30.3024 23.8583C30.6209 23.8644 30.7568 23.9756 30.7541 24.2968C30.748 25.0609 30.7506 25.8258 30.763 26.5908C30.7683 26.9243 30.6341 27.0893 30.2945 27.0699C30.2503 27.0672 30.2062 27.0708 30.1621 27.0699C29.2313 27.0566 29.2313 27.0566 29.0072 27.9769C28.993 28.0342 28.9807 28.0916 28.9666 28.1489C28.7275 29.1212 28.7275 29.1212 29.616 29.588C29.9927 29.7856 30.0006 29.8412 29.6512 30.0732C27.4367 31.5467 25.2141 33.0078 23.0066 34.4919C21.5428 35.4765 20.0376 36.3941 18.5483 37.3373C18.2924 37.4996 18.1062 37.5049 17.8301 37.3576C16.4475 36.62 15.0896 36.7232 13.7812 37.5632C13.5226 37.729 13.2844 37.9276 13.0418 38.1181C12.9456 38.194 12.845 38.277 12.725 38.2231C12.3324 38.0431 12.2212 38.314 12.0757 38.5866C11.4175 39.821 11.6671 39.7548 10.3366 39.1531C9.93518 38.9713 9.53196 38.7913 9.12257 38.6281C8.81465 38.5055 8.71141 38.3184 8.85964 38.0114C8.88523 37.9584 8.9064 37.9037 8.92582 37.8481C9.04316 37.5085 9.42785 37.1352 9.21874 36.8388C8.91435 36.4065 8.39643 36.1435 7.91822 35.8841C7.77529 35.8065 7.67206 35.9238 7.57235 36.0121C7.31913 36.2353 7.05885 36.4515 6.81357 36.6844C6.63799 36.8511 6.48094 36.9058 6.28154 36.7232C5.73009 36.2176 5.17071 35.7191 4.6175 35.2153C4.3784 34.9974 4.46751 34.7848 4.67397 34.6189C4.91837 34.423 5.08513 34.1583 5.30835 33.9475C5.49363 33.7728 5.49628 33.6069 5.35335 33.4057C5.04719 32.9743 4.74544 32.5393 4.45428 32.0981C4.32016 31.8952 4.164 31.8882 3.96195 31.9702C3.62138 32.1079 3.27375 32.2287 2.93317 32.3655C2.70554 32.4572 2.54849 32.4361 2.44702 32.1767C2.18409 31.5061 1.91058 30.84 1.63 30.1765C1.52148 29.9197 1.58324 29.7591 1.83823 29.6524C2.13645 29.5271 2.42497 29.3798 2.72583 29.2606C2.95611 29.1698 3.03199 29.0454 2.97553 28.7886C2.88024 28.3589 2.82289 27.9204 2.76201 27.4837C2.72319 27.204 2.58907 27.0708 2.29791 27.0699C1.98999 27.069 1.68294 27.0275 1.37502 27.0187C1.11738 27.0116 1.00533 26.8925 1.00621 26.6367C1.00886 25.8276 1.0071 25.0194 1.00004 24.2103C0.99739 23.9165 1.13856 23.8424 1.41384 23.8477C2.70201 23.8697 2.70466 23.8644 3.02758 22.6001C3.2808 21.611 3.3558 21.8122 2.44438 21.3931C1.69265 21.0472 1.68736 21.0446 2.00146 20.2673C2.22203 19.722 2.46555 19.1864 2.68613 18.6421C2.79642 18.3703 2.96053 18.2812 3.23581 18.3985C3.53314 18.5256 3.83578 18.6385 4.13135 18.7682C4.37222 18.8741 4.53456 18.8335 4.68368 18.5971C4.92631 18.2124 5.19894 17.8462 5.46893 17.4792C5.62333 17.2692 5.58716 17.1068 5.39305 16.9498C5.15395 16.7548 4.93072 16.5395 4.68456 16.3542C4.45604 16.1822 4.4331 16.0269 4.63162 15.8134C5.1213 15.2858 5.60216 14.7493 6.08125 14.2129C6.24448 14.0302 6.40594 13.987 6.61505 14.144C6.88504 14.347 7.16914 14.5305 7.44089 14.7308C7.61382 14.8578 7.7797 14.8896 7.96586 14.759C8.36202 14.4793 8.7573 14.1979 9.16227 13.9314C9.39785 13.777 9.40667 13.5988 9.29815 13.3658C9.16845 13.0862 9.06346 12.795 8.93905 12.5127C8.81817 12.2383 8.90111 12.0671 9.17463 11.9603C9.83195 11.7036 10.4875 11.4424 11.1413 11.1777C11.3945 11.0754 11.5648 11.1327 11.6627 11.3974C11.7289 11.5765 11.8092 11.7503 11.8868 11.925C12.1992 12.6318 12.0183 12.5788 12.883 12.4747C13.2182 12.4341 13.55 12.3627 13.8862 12.33C14.1403 12.3053 14.2585 12.1871 14.2567 11.9374C14.255 11.6136 14.2585 11.2907 14.2532 10.9669C14.2488 10.6951 14.3661 10.5601 14.6476 10.5628C15.4567 10.5707 16.2649 10.5725 17.0739 10.5716C17.3545 10.5707 17.4701 10.7022 17.463 10.9783C17.4533 11.3312 17.4701 11.6842 17.456 12.0371C17.4463 12.2868 17.546 12.4182 17.7886 12.4694C18.2492 12.5665 18.7089 12.6671 19.1641 12.7818C19.4315 12.8497 19.57 12.7571 19.6653 12.5047C19.7791 12.203 19.9388 11.9189 20.0632 11.6198C20.1823 11.3348 20.3482 11.2448 20.6482 11.3815C21.3434 11.6983 22.0466 11.9992 22.7507 12.2956C22.9633 12.3847 23.0322 12.525 22.9333 12.8003C23.2827 12.5038 23.3216 12.2788 23.0533 11.9727C22.7542 11.6312 22.4948 11.251 22.2557 10.8645C22.0255 10.4931 21.7272 10.3289 21.3002 10.4172C20.9199 10.4957 20.7399 10.3307 20.6393 9.96719C20.5335 9.58427 20.4197 9.20576 20.3508 8.81402C20.2908 8.47697 20.3861 8.29875 20.7523 8.23434C21.4564 8.1117 21.4396 8.09141 21.5719 7.36703C21.6514 6.9347 21.7705 6.50854 21.894 6.08592C21.991 5.75593 21.9116 5.54771 21.6108 5.3536C20.9649 4.93803 20.9764 4.92039 21.384 4.28336C21.4237 4.2216 21.4599 4.15631 21.5075 4.10072C21.7264 3.84397 21.8128 3.43723 22.1225 3.3137C22.4781 3.17165 22.7075 3.56781 22.9978 3.71515C23.1698 3.80338 23.2977 3.7778 23.4442 3.67898C23.9806 3.31811 24.5189 2.95902 25.0624 2.60697C25.2212 2.50374 25.2768 2.37757 25.2362 2.19758C25.2168 2.112 25.2027 2.02465 25.1921 1.93642C25.1162 1.29322 25.1153 1.28616 25.7523 1.17058C26.1132 1.10528 26.4811 1.07882 26.842 1.01441C27.1675 0.956174 27.3608 1.07264 27.4031 1.39733C27.4764 1.95407 27.7666 2.20023 28.3437 2.20905C28.7019 2.21435 29.0698 2.33346 29.4121 2.45875C29.7889 2.59639 30.028 2.5311 30.2592 2.18611C30.6315 1.62938 30.6544 1.64349 31.1979 2.00877C31.5517 2.24611 31.9003 2.49139 32.2585 2.72167C32.4623 2.85314 32.5311 3.0296 32.3502 3.1893C31.6638 3.79191 31.992 4.33542 32.4138 4.88686C32.5029 5.00332 32.5911 5.12508 32.6537 5.25655C32.9352 5.84593 33.3058 6.20591 34.0213 5.90769C34.2543 5.81064 34.4431 5.91475 34.5013 6.2015C34.5957 6.66207 34.7078 7.1191 34.818 7.57702C34.8798 7.83554 34.8145 8.00935 34.5339 8.06758C34.4192 8.09141 34.3081 8.13817 34.1925 8.15405C33.8043 8.20699 33.6084 8.40992 33.5555 8.81225C33.4955 9.27723 33.394 9.73956 33.2705 10.1922C33.1743 10.546 33.2625 10.7577 33.5758 10.9563C34.2684 11.3965 34.2578 11.4124 33.7893 12.0724C33.619 12.3115 33.4425 12.5471 33.2846 12.795C33.1223 13.0491 32.9511 13.065 32.6996 12.9053C32.0705 12.5065 32.0732 12.5277 31.4741 12.9432C31.1247 13.185 30.7533 13.402 30.3703 13.5855C30.0845 13.7223 30.0121 13.8891 30.0351 14.2032C30.0977 15.0643 30.2018 14.9822 29.3054 15.1322C28.9869 15.1852 28.6666 15.2346 28.3507 15.3016C28.071 15.3616 27.9519 15.2663 27.9096 14.9796C27.7852 14.144 27.8769 14.2402 27.0564 14.0708C26.5676 13.9702 26.0761 13.8802 25.5838 13.792C25.3906 13.7602 25.1956 13.7391 25.0835 13.9676ZM6.57623 25.315C6.57182 30.4112 10.3922 34.6957 15.9243 34.7001C21.1043 34.7045 25.0482 30.7059 25.1612 25.5761C25.2803 20.1649 20.9852 16.0869 15.5467 16.3172C10.4319 16.5333 6.63799 20.2011 6.57623 25.315ZM27.5919 11.7239C29.6574 11.7203 31.1503 10.186 31.2068 8.1417C31.2588 6.26679 29.2833 4.46335 27.5399 4.55423C25.5732 4.65746 23.9815 6.06563 23.9762 7.91053C23.9701 10.1454 25.47 11.7274 27.5919 11.7239ZM24.4844 14.6884C24.4747 14.564 24.3653 14.5314 24.2842 14.4758C23.8633 14.1837 23.4433 13.8908 23.0163 13.6076C22.8954 13.5273 22.7525 13.3517 22.6104 13.5688C22.4895 13.7549 22.3837 13.9649 22.606 14.1599C22.9925 14.4987 23.416 14.7881 23.8562 15.0493C24.0556 15.1675 24.4871 14.9055 24.4844 14.6884Z"/>
</mask>
<path d="M25.0835 13.9676C25.5088 14.0399 25.7223 14.4034 26.0241 14.639C26.3814 14.9196 26.6885 15.2628 27.0396 15.5513C27.3387 15.7975 27.3343 16.0278 27.0864 16.2916C26.8755 16.5166 26.6699 16.7477 26.452 16.9657C26.2641 17.1536 26.2482 17.3354 26.4079 17.5498C26.7052 17.9512 26.9946 18.3588 27.2822 18.7673C27.4111 18.95 27.5558 19.0038 27.7719 18.9103C28.1363 18.7541 28.514 18.6288 28.8783 18.4718C29.0839 18.3835 29.2022 18.4118 29.2869 18.6306C29.5577 19.3294 29.8383 20.0246 30.1215 20.7181C30.2089 20.9325 30.1798 21.0825 29.9504 21.1778C29.7739 21.251 29.608 21.3481 29.4342 21.4275C28.7284 21.7495 28.716 21.7504 28.8422 22.5339C28.9092 22.9504 28.8281 23.4692 29.1122 23.7542C29.3936 24.0365 29.8974 23.8503 30.3024 23.8583C30.6209 23.8644 30.7568 23.9756 30.7541 24.2968C30.748 25.0609 30.7506 25.8258 30.763 26.5908C30.7683 26.9243 30.6341 27.0893 30.2945 27.0699C30.2503 27.0672 30.2062 27.0708 30.1621 27.0699C29.2313 27.0566 29.2313 27.0566 29.0072 27.9769C28.993 28.0342 28.9807 28.0916 28.9666 28.1489C28.7275 29.1212 28.7275 29.1212 29.616 29.588C29.9927 29.7856 30.0006 29.8412 29.6512 30.0732C27.4367 31.5467 25.2141 33.0078 23.0066 34.4919C21.5428 35.4765 20.0376 36.3941 18.5483 37.3373C18.2924 37.4996 18.1062 37.5049 17.8301 37.3576C16.4475 36.62 15.0896 36.7232 13.7812 37.5632C13.5226 37.729 13.2844 37.9276 13.0418 38.1181C12.9456 38.194 12.845 38.277 12.725 38.2231C12.3324 38.0431 12.2212 38.314 12.0757 38.5866C11.4175 39.821 11.6671 39.7548 10.3366 39.1531C9.93518 38.9713 9.53196 38.7913 9.12257 38.6281C8.81465 38.5055 8.71141 38.3184 8.85964 38.0114C8.88523 37.9584 8.9064 37.9037 8.92582 37.8481C9.04316 37.5085 9.42785 37.1352 9.21874 36.8388C8.91435 36.4065 8.39643 36.1435 7.91822 35.8841C7.77529 35.8065 7.67206 35.9238 7.57235 36.0121C7.31913 36.2353 7.05885 36.4515 6.81357 36.6844C6.63799 36.8511 6.48094 36.9058 6.28154 36.7232C5.73009 36.2176 5.17071 35.7191 4.6175 35.2153C4.3784 34.9974 4.46751 34.7848 4.67397 34.6189C4.91837 34.423 5.08513 34.1583 5.30835 33.9475C5.49363 33.7728 5.49628 33.6069 5.35335 33.4057C5.04719 32.9743 4.74544 32.5393 4.45428 32.0981C4.32016 31.8952 4.164 31.8882 3.96195 31.9702C3.62138 32.1079 3.27375 32.2287 2.93317 32.3655C2.70554 32.4572 2.54849 32.4361 2.44702 32.1767C2.18409 31.5061 1.91058 30.84 1.63 30.1765C1.52148 29.9197 1.58324 29.7591 1.83823 29.6524C2.13645 29.5271 2.42497 29.3798 2.72583 29.2606C2.95611 29.1698 3.03199 29.0454 2.97553 28.7886C2.88024 28.3589 2.82289 27.9204 2.76201 27.4837C2.72319 27.204 2.58907 27.0708 2.29791 27.0699C1.98999 27.069 1.68294 27.0275 1.37502 27.0187C1.11738 27.0116 1.00533 26.8925 1.00621 26.6367C1.00886 25.8276 1.0071 25.0194 1.00004 24.2103C0.99739 23.9165 1.13856 23.8424 1.41384 23.8477C2.70201 23.8697 2.70466 23.8644 3.02758 22.6001C3.2808 21.611 3.3558 21.8122 2.44438 21.3931C1.69265 21.0472 1.68736 21.0446 2.00146 20.2673C2.22203 19.722 2.46555 19.1864 2.68613 18.6421C2.79642 18.3703 2.96053 18.2812 3.23581 18.3985C3.53314 18.5256 3.83578 18.6385 4.13135 18.7682C4.37222 18.8741 4.53456 18.8335 4.68368 18.5971C4.92631 18.2124 5.19894 17.8462 5.46893 17.4792C5.62333 17.2692 5.58716 17.1068 5.39305 16.9498C5.15395 16.7548 4.93072 16.5395 4.68456 16.3542C4.45604 16.1822 4.4331 16.0269 4.63162 15.8134C5.1213 15.2858 5.60216 14.7493 6.08125 14.2129C6.24448 14.0302 6.40594 13.987 6.61505 14.144C6.88504 14.347 7.16914 14.5305 7.44089 14.7308C7.61382 14.8578 7.7797 14.8896 7.96586 14.759C8.36202 14.4793 8.7573 14.1979 9.16227 13.9314C9.39785 13.777 9.40667 13.5988 9.29815 13.3658C9.16845 13.0862 9.06346 12.795 8.93905 12.5127C8.81817 12.2383 8.90111 12.0671 9.17463 11.9603C9.83195 11.7036 10.4875 11.4424 11.1413 11.1777C11.3945 11.0754 11.5648 11.1327 11.6627 11.3974C11.7289 11.5765 11.8092 11.7503 11.8868 11.925C12.1992 12.6318 12.0183 12.5788 12.883 12.4747C13.2182 12.4341 13.55 12.3627 13.8862 12.33C14.1403 12.3053 14.2585 12.1871 14.2567 11.9374C14.255 11.6136 14.2585 11.2907 14.2532 10.9669C14.2488 10.6951 14.3661 10.5601 14.6476 10.5628C15.4567 10.5707 16.2649 10.5725 17.0739 10.5716C17.3545 10.5707 17.4701 10.7022 17.463 10.9783C17.4533 11.3312 17.4701 11.6842 17.456 12.0371C17.4463 12.2868 17.546 12.4182 17.7886 12.4694C18.2492 12.5665 18.7089 12.6671 19.1641 12.7818C19.4315 12.8497 19.57 12.7571 19.6653 12.5047C19.7791 12.203 19.9388 11.9189 20.0632 11.6198C20.1823 11.3348 20.3482 11.2448 20.6482 11.3815C21.3434 11.6983 22.0466 11.9992 22.7507 12.2956C22.9633 12.3847 23.0322 12.525 22.9333 12.8003C23.2827 12.5038 23.3216 12.2788 23.0533 11.9727C22.7542 11.6312 22.4948 11.251 22.2557 10.8645C22.0255 10.4931 21.7272 10.3289 21.3002 10.4172C20.9199 10.4957 20.7399 10.3307 20.6393 9.96719C20.5335 9.58427 20.4197 9.20576 20.3508 8.81402C20.2908 8.47697 20.3861 8.29875 20.7523 8.23434C21.4564 8.1117 21.4396 8.09141 21.5719 7.36703C21.6514 6.9347 21.7705 6.50854 21.894 6.08592C21.991 5.75593 21.9116 5.54771 21.6108 5.3536C20.9649 4.93803 20.9764 4.92039 21.384 4.28336C21.4237 4.2216 21.4599 4.15631 21.5075 4.10072C21.7264 3.84397 21.8128 3.43723 22.1225 3.3137C22.4781 3.17165 22.7075 3.56781 22.9978 3.71515C23.1698 3.80338 23.2977 3.7778 23.4442 3.67898C23.9806 3.31811 24.5189 2.95902 25.0624 2.60697C25.2212 2.50374 25.2768 2.37757 25.2362 2.19758C25.2168 2.112 25.2027 2.02465 25.1921 1.93642C25.1162 1.29322 25.1153 1.28616 25.7523 1.17058C26.1132 1.10528 26.4811 1.07882 26.842 1.01441C27.1675 0.956174 27.3608 1.07264 27.4031 1.39733C27.4764 1.95407 27.7666 2.20023 28.3437 2.20905C28.7019 2.21435 29.0698 2.33346 29.4121 2.45875C29.7889 2.59639 30.028 2.5311 30.2592 2.18611C30.6315 1.62938 30.6544 1.64349 31.1979 2.00877C31.5517 2.24611 31.9003 2.49139 32.2585 2.72167C32.4623 2.85314 32.5311 3.0296 32.3502 3.1893C31.6638 3.79191 31.992 4.33542 32.4138 4.88686C32.5029 5.00332 32.5911 5.12508 32.6537 5.25655C32.9352 5.84593 33.3058 6.20591 34.0213 5.90769C34.2543 5.81064 34.4431 5.91475 34.5013 6.2015C34.5957 6.66207 34.7078 7.1191 34.818 7.57702C34.8798 7.83554 34.8145 8.00935 34.5339 8.06758C34.4192 8.09141 34.3081 8.13817 34.1925 8.15405C33.8043 8.20699 33.6084 8.40992 33.5555 8.81225C33.4955 9.27723 33.394 9.73956 33.2705 10.1922C33.1743 10.546 33.2625 10.7577 33.5758 10.9563C34.2684 11.3965 34.2578 11.4124 33.7893 12.0724C33.619 12.3115 33.4425 12.5471 33.2846 12.795C33.1223 13.0491 32.9511 13.065 32.6996 12.9053C32.0705 12.5065 32.0732 12.5277 31.4741 12.9432C31.1247 13.185 30.7533 13.402 30.3703 13.5855C30.0845 13.7223 30.0121 13.8891 30.0351 14.2032C30.0977 15.0643 30.2018 14.9822 29.3054 15.1322C28.9869 15.1852 28.6666 15.2346 28.3507 15.3016C28.071 15.3616 27.9519 15.2663 27.9096 14.9796C27.7852 14.144 27.8769 14.2402 27.0564 14.0708C26.5676 13.9702 26.0761 13.8802 25.5838 13.792C25.3906 13.7602 25.1956 13.7391 25.0835 13.9676ZM6.57623 25.315C6.57182 30.4112 10.3922 34.6957 15.9243 34.7001C21.1043 34.7045 25.0482 30.7059 25.1612 25.5761C25.2803 20.1649 20.9852 16.0869 15.5467 16.3172C10.4319 16.5333 6.63799 20.2011 6.57623 25.315ZM27.5919 11.7239C29.6574 11.7203 31.1503 10.186 31.2068 8.1417C31.2588 6.26679 29.2833 4.46335 27.5399 4.55423C25.5732 4.65746 23.9815 6.06563 23.9762 7.91053C23.9701 10.1454 25.47 11.7274 27.5919 11.7239ZM24.4844 14.6884C24.4747 14.564 24.3653 14.5314 24.2842 14.4758C23.8633 14.1837 23.4433 13.8908 23.0163 13.6076C22.8954 13.5273 22.7525 13.3517 22.6104 13.5688C22.4895 13.7549 22.3837 13.9649 22.606 14.1599C22.9925 14.4987 23.416 14.7881 23.8562 15.0493C24.0556 15.1675 24.4871 14.9055 24.4844 14.6884Z" fill="black"/>
<path d="M25.0835 13.9676C25.5088 14.0399 25.7223 14.4034 26.0241 14.639C26.3814 14.9196 26.6885 15.2628 27.0396 15.5513C27.3387 15.7975 27.3343 16.0278 27.0864 16.2916C26.8755 16.5166 26.6699 16.7477 26.452 16.9657C26.2641 17.1536 26.2482 17.3354 26.4079 17.5498C26.7052 17.9512 26.9946 18.3588 27.2822 18.7673C27.4111 18.95 27.5558 19.0038 27.7719 18.9103C28.1363 18.7541 28.514 18.6288 28.8783 18.4718C29.0839 18.3835 29.2022 18.4118 29.2869 18.6306C29.5577 19.3294 29.8383 20.0246 30.1215 20.7181C30.2089 20.9325 30.1798 21.0825 29.9504 21.1778C29.7739 21.251 29.608 21.3481 29.4342 21.4275C28.7284 21.7495 28.716 21.7504 28.8422 22.5339C28.9092 22.9504 28.8281 23.4692 29.1122 23.7542C29.3936 24.0365 29.8974 23.8503 30.3024 23.8583C30.6209 23.8644 30.7568 23.9756 30.7541 24.2968C30.748 25.0609 30.7506 25.8258 30.763 26.5908C30.7683 26.9243 30.6341 27.0893 30.2945 27.0699C30.2503 27.0672 30.2062 27.0708 30.1621 27.0699C29.2313 27.0566 29.2313 27.0566 29.0072 27.9769C28.993 28.0342 28.9807 28.0916 28.9666 28.1489C28.7275 29.1212 28.7275 29.1212 29.616 29.588C29.9927 29.7856 30.0006 29.8412 29.6512 30.0732C27.4367 31.5467 25.2141 33.0078 23.0066 34.4919C21.5428 35.4765 20.0376 36.3941 18.5483 37.3373C18.2924 37.4996 18.1062 37.5049 17.8301 37.3576C16.4475 36.62 15.0896 36.7232 13.7812 37.5632C13.5226 37.729 13.2844 37.9276 13.0418 38.1181C12.9456 38.194 12.845 38.277 12.725 38.2231C12.3324 38.0431 12.2212 38.314 12.0757 38.5866C11.4175 39.821 11.6671 39.7548 10.3366 39.1531C9.93518 38.9713 9.53196 38.7913 9.12257 38.6281C8.81465 38.5055 8.71141 38.3184 8.85964 38.0114C8.88523 37.9584 8.9064 37.9037 8.92582 37.8481C9.04316 37.5085 9.42785 37.1352 9.21874 36.8388C8.91435 36.4065 8.39643 36.1435 7.91822 35.8841C7.77529 35.8065 7.67206 35.9238 7.57235 36.0121C7.31913 36.2353 7.05885 36.4515 6.81357 36.6844C6.63799 36.8511 6.48094 36.9058 6.28154 36.7232C5.73009 36.2176 5.17071 35.7191 4.6175 35.2153C4.3784 34.9974 4.46751 34.7848 4.67397 34.6189C4.91837 34.423 5.08513 34.1583 5.30835 33.9475C5.49363 33.7728 5.49628 33.6069 5.35335 33.4057C5.04719 32.9743 4.74544 32.5393 4.45428 32.0981C4.32016 31.8952 4.164 31.8882 3.96195 31.9702C3.62138 32.1079 3.27375 32.2287 2.93317 32.3655C2.70554 32.4572 2.54849 32.4361 2.44702 32.1767C2.18409 31.5061 1.91058 30.84 1.63 30.1765C1.52148 29.9197 1.58324 29.7591 1.83823 29.6524C2.13645 29.5271 2.42497 29.3798 2.72583 29.2606C2.95611 29.1698 3.03199 29.0454 2.97553 28.7886C2.88024 28.3589 2.82289 27.9204 2.76201 27.4837C2.72319 27.204 2.58907 27.0708 2.29791 27.0699C1.98999 27.069 1.68294 27.0275 1.37502 27.0187C1.11738 27.0116 1.00533 26.8925 1.00621 26.6367C1.00886 25.8276 1.0071 25.0194 1.00004 24.2103C0.99739 23.9165 1.13856 23.8424 1.41384 23.8477C2.70201 23.8697 2.70466 23.8644 3.02758 22.6001C3.2808 21.611 3.3558 21.8122 2.44438 21.3931C1.69265 21.0472 1.68736 21.0446 2.00146 20.2673C2.22203 19.722 2.46555 19.1864 2.68613 18.6421C2.79642 18.3703 2.96053 18.2812 3.23581 18.3985C3.53314 18.5256 3.83578 18.6385 4.13135 18.7682C4.37222 18.8741 4.53456 18.8335 4.68368 18.5971C4.92631 18.2124 5.19894 17.8462 5.46893 17.4792C5.62333 17.2692 5.58716 17.1068 5.39305 16.9498C5.15395 16.7548 4.93072 16.5395 4.68456 16.3542C4.45604 16.1822 4.4331 16.0269 4.63162 15.8134C5.1213 15.2858 5.60216 14.7493 6.08125 14.2129C6.24448 14.0302 6.40594 13.987 6.61505 14.144C6.88504 14.347 7.16914 14.5305 7.44089 14.7308C7.61382 14.8578 7.7797 14.8896 7.96586 14.759C8.36202 14.4793 8.7573 14.1979 9.16227 13.9314C9.39785 13.777 9.40667 13.5988 9.29815 13.3658C9.16845 13.0862 9.06346 12.795 8.93905 12.5127C8.81817 12.2383 8.90111 12.0671 9.17463 11.9603C9.83195 11.7036 10.4875 11.4424 11.1413 11.1777C11.3945 11.0754 11.5648 11.1327 11.6627 11.3974C11.7289 11.5765 11.8092 11.7503 11.8868 11.925C12.1992 12.6318 12.0183 12.5788 12.883 12.4747C13.2182 12.4341 13.55 12.3627 13.8862 12.33C14.1403 12.3053 14.2585 12.1871 14.2567 11.9374C14.255 11.6136 14.2585 11.2907 14.2532 10.9669C14.2488 10.6951 14.3661 10.5601 14.6476 10.5628C15.4567 10.5707 16.2649 10.5725 17.0739 10.5716C17.3545 10.5707 17.4701 10.7022 17.463 10.9783C17.4533 11.3312 17.4701 11.6842 17.456 12.0371C17.4463 12.2868 17.546 12.4182 17.7886 12.4694C18.2492 12.5665 18.7089 12.6671 19.1641 12.7818C19.4315 12.8497 19.57 12.7571 19.6653 12.5047C19.7791 12.203 19.9388 11.9189 20.0632 11.6198C20.1823 11.3348 20.3482 11.2448 20.6482 11.3815C21.3434 11.6983 22.0466 11.9992 22.7507 12.2956C22.9633 12.3847 23.0322 12.525 22.9333 12.8003C23.2827 12.5038 23.3216 12.2788 23.0533 11.9727C22.7542 11.6312 22.4948 11.251 22.2557 10.8645C22.0255 10.4931 21.7272 10.3289 21.3002 10.4172C20.9199 10.4957 20.7399 10.3307 20.6393 9.96719C20.5335 9.58427 20.4197 9.20576 20.3508 8.81402C20.2908 8.47697 20.3861 8.29875 20.7523 8.23434C21.4564 8.1117 21.4396 8.09141 21.5719 7.36703C21.6514 6.9347 21.7705 6.50854 21.894 6.08592C21.991 5.75593 21.9116 5.54771 21.6108 5.3536C20.9649 4.93803 20.9764 4.92039 21.384 4.28336C21.4237 4.2216 21.4599 4.15631 21.5075 4.10072C21.7264 3.84397 21.8128 3.43723 22.1225 3.3137C22.4781 3.17165 22.7075 3.56781 22.9978 3.71515C23.1698 3.80338 23.2977 3.7778 23.4442 3.67898C23.9806 3.31811 24.5189 2.95902 25.0624 2.60697C25.2212 2.50374 25.2768 2.37757 25.2362 2.19758C25.2168 2.112 25.2027 2.02465 25.1921 1.93642C25.1162 1.29322 25.1153 1.28616 25.7523 1.17058C26.1132 1.10528 26.4811 1.07882 26.842 1.01441C27.1675 0.956174 27.3608 1.07264 27.4031 1.39733C27.4764 1.95407 27.7666 2.20023 28.3437 2.20905C28.7019 2.21435 29.0698 2.33346 29.4121 2.45875C29.7889 2.59639 30.028 2.5311 30.2592 2.18611C30.6315 1.62938 30.6544 1.64349 31.1979 2.00877C31.5517 2.24611 31.9003 2.49139 32.2585 2.72167C32.4623 2.85314 32.5311 3.0296 32.3502 3.1893C31.6638 3.79191 31.992 4.33542 32.4138 4.88686C32.5029 5.00332 32.5911 5.12508 32.6537 5.25655C32.9352 5.84593 33.3058 6.20591 34.0213 5.90769C34.2543 5.81064 34.4431 5.91475 34.5013 6.2015C34.5957 6.66207 34.7078 7.1191 34.818 7.57702C34.8798 7.83554 34.8145 8.00935 34.5339 8.06758C34.4192 8.09141 34.3081 8.13817 34.1925 8.15405C33.8043 8.20699 33.6084 8.40992 33.5555 8.81225C33.4955 9.27723 33.394 9.73956 33.2705 10.1922C33.1743 10.546 33.2625 10.7577 33.5758 10.9563C34.2684 11.3965 34.2578 11.4124 33.7893 12.0724C33.619 12.3115 33.4425 12.5471 33.2846 12.795C33.1223 13.0491 32.9511 13.065 32.6996 12.9053C32.0705 12.5065 32.0732 12.5277 31.4741 12.9432C31.1247 13.185 30.7533 13.402 30.3703 13.5855C30.0845 13.7223 30.0121 13.8891 30.0351 14.2032C30.0977 15.0643 30.2018 14.9822 29.3054 15.1322C28.9869 15.1852 28.6666 15.2346 28.3507 15.3016C28.071 15.3616 27.9519 15.2663 27.9096 14.9796C27.7852 14.144 27.8769 14.2402 27.0564 14.0708C26.5676 13.9702 26.0761 13.8802 25.5838 13.792C25.3906 13.7602 25.1956 13.7391 25.0835 13.9676ZM6.57623 25.315C6.57182 30.4112 10.3922 34.6957 15.9243 34.7001C21.1043 34.7045 25.0482 30.7059 25.1612 25.5761C25.2803 20.1649 20.9852 16.0869 15.5467 16.3172C10.4319 16.5333 6.63799 20.2011 6.57623 25.315ZM27.5919 11.7239C29.6574 11.7203 31.1503 10.186 31.2068 8.1417C31.2588 6.26679 29.2833 4.46335 27.5399 4.55423C25.5732 4.65746 23.9815 6.06563 23.9762 7.91053C23.9701 10.1454 25.47 11.7274 27.5919 11.7239ZM24.4844 14.6884C24.4747 14.564 24.3653 14.5314 24.2842 14.4758C23.8633 14.1837 23.4433 13.8908 23.0163 13.6076C22.8954 13.5273 22.7525 13.3517 22.6104 13.5688C22.4895 13.7549 22.3837 13.9649 22.606 14.1599C22.9925 14.4987 23.416 14.7881 23.8562 15.0493C24.0556 15.1675 24.4871 14.9055 24.4844 14.6884Z" fill="#02A653"/>
<path d="M25.0835 13.9676C25.5088 14.0399 25.7223 14.4034 26.0241 14.639C26.3814 14.9196 26.6885 15.2628 27.0396 15.5513C27.3387 15.7975 27.3343 16.0278 27.0864 16.2916C26.8755 16.5166 26.6699 16.7477 26.452 16.9657C26.2641 17.1536 26.2482 17.3354 26.4079 17.5498C26.7052 17.9512 26.9946 18.3588 27.2822 18.7673C27.4111 18.95 27.5558 19.0038 27.7719 18.9103C28.1363 18.7541 28.514 18.6288 28.8783 18.4718C29.0839 18.3835 29.2022 18.4118 29.2869 18.6306C29.5577 19.3294 29.8383 20.0246 30.1215 20.7181C30.2089 20.9325 30.1798 21.0825 29.9504 21.1778C29.7739 21.251 29.608 21.3481 29.4342 21.4275C28.7284 21.7495 28.716 21.7504 28.8422 22.5339C28.9092 22.9504 28.8281 23.4692 29.1122 23.7542C29.3936 24.0365 29.8974 23.8503 30.3024 23.8583C30.6209 23.8644 30.7568 23.9756 30.7541 24.2968C30.748 25.0609 30.7506 25.8258 30.763 26.5908C30.7683 26.9243 30.6341 27.0893 30.2945 27.0699C30.2503 27.0672 30.2062 27.0708 30.1621 27.0699C29.2313 27.0566 29.2313 27.0566 29.0072 27.9769C28.993 28.0342 28.9807 28.0916 28.9666 28.1489C28.7275 29.1212 28.7275 29.1212 29.616 29.588C29.9927 29.7856 30.0006 29.8412 29.6512 30.0732C27.4367 31.5467 25.2141 33.0078 23.0066 34.4919C21.5428 35.4765 20.0376 36.3941 18.5483 37.3373C18.2924 37.4996 18.1062 37.5049 17.8301 37.3576C16.4475 36.62 15.0896 36.7232 13.7812 37.5632C13.5226 37.729 13.2844 37.9276 13.0418 38.1181C12.9456 38.194 12.845 38.277 12.725 38.2231C12.3324 38.0431 12.2212 38.314 12.0757 38.5866C11.4175 39.821 11.6671 39.7548 10.3366 39.1531C9.93518 38.9713 9.53196 38.7913 9.12257 38.6281C8.81465 38.5055 8.71141 38.3184 8.85964 38.0114C8.88523 37.9584 8.9064 37.9037 8.92582 37.8481C9.04316 37.5085 9.42785 37.1352 9.21874 36.8388C8.91435 36.4065 8.39643 36.1435 7.91822 35.8841C7.77529 35.8065 7.67206 35.9238 7.57235 36.0121C7.31913 36.2353 7.05885 36.4515 6.81357 36.6844C6.63799 36.8511 6.48094 36.9058 6.28154 36.7232C5.73009 36.2176 5.17071 35.7191 4.6175 35.2153C4.3784 34.9974 4.46751 34.7848 4.67397 34.6189C4.91837 34.423 5.08513 34.1583 5.30835 33.9475C5.49363 33.7728 5.49628 33.6069 5.35335 33.4057C5.04719 32.9743 4.74544 32.5393 4.45428 32.0981C4.32016 31.8952 4.164 31.8882 3.96195 31.9702C3.62138 32.1079 3.27375 32.2287 2.93317 32.3655C2.70554 32.4572 2.54849 32.4361 2.44702 32.1767C2.18409 31.5061 1.91058 30.84 1.63 30.1765C1.52148 29.9197 1.58324 29.7591 1.83823 29.6524C2.13645 29.5271 2.42497 29.3798 2.72583 29.2606C2.95611 29.1698 3.03199 29.0454 2.97553 28.7886C2.88024 28.3589 2.82289 27.9204 2.76201 27.4837C2.72319 27.204 2.58907 27.0708 2.29791 27.0699C1.98999 27.069 1.68294 27.0275 1.37502 27.0187C1.11738 27.0116 1.00533 26.8925 1.00621 26.6367C1.00886 25.8276 1.0071 25.0194 1.00004 24.2103C0.99739 23.9165 1.13856 23.8424 1.41384 23.8477C2.70201 23.8697 2.70466 23.8644 3.02758 22.6001C3.2808 21.611 3.3558 21.8122 2.44438 21.3931C1.69265 21.0472 1.68736 21.0446 2.00146 20.2673C2.22203 19.722 2.46555 19.1864 2.68613 18.6421C2.79642 18.3703 2.96053 18.2812 3.23581 18.3985C3.53314 18.5256 3.83578 18.6385 4.13135 18.7682C4.37222 18.8741 4.53456 18.8335 4.68368 18.5971C4.92631 18.2124 5.19894 17.8462 5.46893 17.4792C5.62333 17.2692 5.58716 17.1068 5.39305 16.9498C5.15395 16.7548 4.93072 16.5395 4.68456 16.3542C4.45604 16.1822 4.4331 16.0269 4.63162 15.8134C5.1213 15.2858 5.60216 14.7493 6.08125 14.2129C6.24448 14.0302 6.40594 13.987 6.61505 14.144C6.88504 14.347 7.16914 14.5305 7.44089 14.7308C7.61382 14.8578 7.7797 14.8896 7.96586 14.759C8.36202 14.4793 8.7573 14.1979 9.16227 13.9314C9.39785 13.777 9.40667 13.5988 9.29815 13.3658C9.16845 13.0862 9.06346 12.795 8.93905 12.5127C8.81817 12.2383 8.90111 12.0671 9.17463 11.9603C9.83195 11.7036 10.4875 11.4424 11.1413 11.1777C11.3945 11.0754 11.5648 11.1327 11.6627 11.3974C11.7289 11.5765 11.8092 11.7503 11.8868 11.925C12.1992 12.6318 12.0183 12.5788 12.883 12.4747C13.2182 12.4341 13.55 12.3627 13.8862 12.33C14.1403 12.3053 14.2585 12.1871 14.2567 11.9374C14.255 11.6136 14.2585 11.2907 14.2532 10.9669C14.2488 10.6951 14.3661 10.5601 14.6476 10.5628C15.4567 10.5707 16.2649 10.5725 17.0739 10.5716C17.3545 10.5707 17.4701 10.7022 17.463 10.9783C17.4533 11.3312 17.4701 11.6842 17.456 12.0371C17.4463 12.2868 17.546 12.4182 17.7886 12.4694C18.2492 12.5665 18.7089 12.6671 19.1641 12.7818C19.4315 12.8497 19.57 12.7571 19.6653 12.5047C19.7791 12.203 19.9388 11.9189 20.0632 11.6198C20.1823 11.3348 20.3482 11.2448 20.6482 11.3815C21.3434 11.6983 22.0466 11.9992 22.7507 12.2956C22.9633 12.3847 23.0322 12.525 22.9333 12.8003C23.2827 12.5038 23.3216 12.2788 23.0533 11.9727C22.7542 11.6312 22.4948 11.251 22.2557 10.8645C22.0255 10.4931 21.7272 10.3289 21.3002 10.4172C20.9199 10.4957 20.7399 10.3307 20.6393 9.96719C20.5335 9.58427 20.4197 9.20576 20.3508 8.81402C20.2908 8.47697 20.3861 8.29875 20.7523 8.23434C21.4564 8.1117 21.4396 8.09141 21.5719 7.36703C21.6514 6.9347 21.7705 6.50854 21.894 6.08592C21.991 5.75593 21.9116 5.54771 21.6108 5.3536C20.9649 4.93803 20.9764 4.92039 21.384 4.28336C21.4237 4.2216 21.4599 4.15631 21.5075 4.10072C21.7264 3.84397 21.8128 3.43723 22.1225 3.3137C22.4781 3.17165 22.7075 3.56781 22.9978 3.71515C23.1698 3.80338 23.2977 3.7778 23.4442 3.67898C23.9806 3.31811 24.5189 2.95902 25.0624 2.60697C25.2212 2.50374 25.2768 2.37757 25.2362 2.19758C25.2168 2.112 25.2027 2.02465 25.1921 1.93642C25.1162 1.29322 25.1153 1.28616 25.7523 1.17058C26.1132 1.10528 26.4811 1.07882 26.842 1.01441C27.1675 0.956174 27.3608 1.07264 27.4031 1.39733C27.4764 1.95407 27.7666 2.20023 28.3437 2.20905C28.7019 2.21435 29.0698 2.33346 29.4121 2.45875C29.7889 2.59639 30.028 2.5311 30.2592 2.18611C30.6315 1.62938 30.6544 1.64349 31.1979 2.00877C31.5517 2.24611 31.9003 2.49139 32.2585 2.72167C32.4623 2.85314 32.5311 3.0296 32.3502 3.1893C31.6638 3.79191 31.992 4.33542 32.4138 4.88686C32.5029 5.00332 32.5911 5.12508 32.6537 5.25655C32.9352 5.84593 33.3058 6.20591 34.0213 5.90769C34.2543 5.81064 34.4431 5.91475 34.5013 6.2015C34.5957 6.66207 34.7078 7.1191 34.818 7.57702C34.8798 7.83554 34.8145 8.00935 34.5339 8.06758C34.4192 8.09141 34.3081 8.13817 34.1925 8.15405C33.8043 8.20699 33.6084 8.40992 33.5555 8.81225C33.4955 9.27723 33.394 9.73956 33.2705 10.1922C33.1743 10.546 33.2625 10.7577 33.5758 10.9563C34.2684 11.3965 34.2578 11.4124 33.7893 12.0724C33.619 12.3115 33.4425 12.5471 33.2846 12.795C33.1223 13.0491 32.9511 13.065 32.6996 12.9053C32.0705 12.5065 32.0732 12.5277 31.4741 12.9432C31.1247 13.185 30.7533 13.402 30.3703 13.5855C30.0845 13.7223 30.0121 13.8891 30.0351 14.2032C30.0977 15.0643 30.2018 14.9822 29.3054 15.1322C28.9869 15.1852 28.6666 15.2346 28.3507 15.3016C28.071 15.3616 27.9519 15.2663 27.9096 14.9796C27.7852 14.144 27.8769 14.2402 27.0564 14.0708C26.5676 13.9702 26.0761 13.8802 25.5838 13.792C25.3906 13.7602 25.1956 13.7391 25.0835 13.9676ZM6.57623 25.315C6.57182 30.4112 10.3922 34.6957 15.9243 34.7001C21.1043 34.7045 25.0482 30.7059 25.1612 25.5761C25.2803 20.1649 20.9852 16.0869 15.5467 16.3172C10.4319 16.5333 6.63799 20.2011 6.57623 25.315ZM27.5919 11.7239C29.6574 11.7203 31.1503 10.186 31.2068 8.1417C31.2588 6.26679 29.2833 4.46335 27.5399 4.55423C25.5732 4.65746 23.9815 6.06563 23.9762 7.91053C23.9701 10.1454 25.47 11.7274 27.5919 11.7239ZM24.4844 14.6884C24.4747 14.564 24.3653 14.5314 24.2842 14.4758C23.8633 14.1837 23.4433 13.8908 23.0163 13.6076C22.8954 13.5273 22.7525 13.3517 22.6104 13.5688C22.4895 13.7549 22.3837 13.9649 22.606 14.1599C22.9925 14.4987 23.416 14.7881 23.8562 15.0493C24.0556 15.1675 24.4871 14.9055 24.4844 14.6884Z" stroke="#02A653" stroke-width="2" mask="url(#path-1-outside-1_54_838)"/>
<path d="M36.5996 25.8716C37.6531 25.6629 38.6674 25.8334 39.6152 26.2749L39.6143 26.2759C39.7111 26.3209 39.8239 26.3821 39.917 26.4731C40.0171 26.5712 40.1233 26.7332 40.1152 26.9507C40.1079 27.1497 40.0073 27.292 39.9385 27.3696C39.8667 27.4506 39.7816 27.5162 39.709 27.5659L39.708 27.5649C39.1349 27.959 38.5301 28.4036 37.9219 28.7993C37.8164 28.8679 37.7732 28.9188 37.7529 28.9526C37.7362 28.9805 37.7173 29.0259 37.7188 29.1226L37.7236 29.4937C37.7248 29.8713 37.7102 30.2701 37.6396 30.6714C37.6382 30.6793 37.6383 30.6862 37.6377 30.6919C37.6469 30.6972 37.6588 30.7058 37.6768 30.7134C38.1864 30.9275 38.6915 31.1519 39.1914 31.3794C39.1964 31.3768 39.2032 31.3754 39.21 31.3716C39.2388 31.3552 39.2676 31.336 39.3154 31.3052L39.3164 31.3042C39.9151 30.9199 40.5557 30.4923 41.168 30.103L41.3311 30.0063C41.3877 29.9755 41.4462 29.9469 41.5049 29.9253C41.6177 29.8837 41.8309 29.8292 42.0537 29.9399C42.2693 30.0472 42.3567 30.2429 42.3945 30.3501C42.4356 30.4664 42.4595 30.5998 42.4775 30.7231C42.7326 32.4704 41.9433 33.7925 40.6797 34.7407C39.9049 35.3219 39.0693 35.6909 38.1855 35.771C37.3125 35.8501 36.4315 35.6422 35.5605 35.1401C35.5594 35.1409 35.5579 35.1413 35.5566 35.1421C33.0404 36.7737 30.5245 38.3978 28.0127 40.0317C26.1511 41.2424 24.2846 42.498 22.3955 43.6938C22.1069 43.8781 21.9415 44.0154 21.8604 44.1372C21.8214 44.1957 21.7962 44.2552 21.8135 44.353L21.8457 44.4653L21.876 44.5435L21.8789 44.6274C21.9579 47.0391 20.0066 49.0496 17.6406 49.1509L17.6416 49.1519C16.992 49.1799 16.3578 49.0966 15.7432 48.9272H15.7422C15.7408 48.9269 15.7371 48.9256 15.7305 48.9243C15.7175 48.9217 15.7092 48.9198 15.6865 48.9155C15.6521 48.909 15.5839 48.8962 15.5127 48.8706C15.4387 48.8441 15.3361 48.7962 15.2441 48.7026C15.1468 48.6036 15.0877 48.4808 15.0635 48.3501C15.0111 48.0679 15.1448 47.8618 15.252 47.7515C15.3001 47.7019 15.3492 47.6638 15.3779 47.6421C15.418 47.6118 15.4215 47.61 15.4336 47.6001C15.9416 47.1783 16.4687 46.7227 17.0166 46.3062L17.1182 46.2173C17.142 46.1922 17.1566 46.1714 17.166 46.1548C17.181 46.1285 17.1953 46.091 17.1943 46.0161L17.1904 45.3267C17.1902 45.1416 17.1892 44.9937 17.1836 44.8628C17.1784 44.7412 17.1697 44.6679 17.1592 44.6206C17.1543 44.5987 17.1499 44.5856 17.1475 44.5796C17.1463 44.5768 17.1449 44.5754 17.1445 44.5747V44.5737C17.144 44.573 17.1196 44.535 16.8809 44.4282C16.7691 44.3782 16.6372 44.3234 16.4619 44.2495C16.2904 44.1772 16.0884 44.0901 15.8525 43.9819H15.8516C15.6529 43.8906 15.5174 43.8689 15.415 43.8774C15.3185 43.8856 15.2008 43.9252 15.043 44.0513L15.042 44.0503C14.7834 44.2571 14.5127 44.4416 14.2578 44.6128C13.9974 44.7877 13.7555 44.9494 13.5273 45.1255H13.5264C13.4299 45.1999 13.3141 45.2775 13.1846 45.3228C13.0435 45.372 12.8414 45.3959 12.6426 45.2847C12.4667 45.1861 12.3828 45.0292 12.3428 44.937C12.3001 44.8386 12.2728 44.7313 12.2529 44.6431V44.6421C12.059 43.777 12.2362 42.9638 12.5928 42.2524C13.6325 40.1759 16.3161 38.8584 18.6318 39.7905L18.6455 39.7954C18.652 39.7974 18.6622 39.7997 18.6729 39.8032C18.7071 39.8145 18.8058 39.8478 18.8994 39.9282L18.9004 39.9292C18.9733 39.9924 19.0256 40.0163 19.0566 40.0259C19.0854 40.0347 19.1143 40.0368 19.1523 40.0308C19.2502 40.0153 19.3812 39.953 19.6055 39.8101C21.9128 38.3384 24.2174 36.8828 26.4834 35.3657L29.376 33.4243C30.3435 32.7781 31.3159 32.1363 32.2969 31.5093C32.5379 31.3552 32.6589 31.2271 32.7266 31.104C32.7764 31.0132 32.8127 30.8966 32.8252 30.7251L32.8291 30.5337C32.7764 28.3631 34.4947 26.2882 36.5996 25.8716Z" fill="black"/>
<path d="M36.5996 25.8716C37.6531 25.6629 38.6674 25.8334 39.6152 26.2749L39.6143 26.2759C39.7111 26.3209 39.8239 26.3821 39.917 26.4731C40.0171 26.5712 40.1233 26.7332 40.1152 26.9507C40.1079 27.1497 40.0073 27.292 39.9385 27.3696C39.8667 27.4506 39.7816 27.5162 39.709 27.5659L39.708 27.5649C39.1349 27.959 38.5301 28.4036 37.9219 28.7993C37.8164 28.8679 37.7732 28.9188 37.7529 28.9526C37.7362 28.9805 37.7173 29.0259 37.7188 29.1226L37.7236 29.4937C37.7248 29.8713 37.7102 30.2701 37.6396 30.6714C37.6382 30.6793 37.6383 30.6862 37.6377 30.6919C37.6469 30.6972 37.6588 30.7058 37.6768 30.7134C38.1864 30.9275 38.6915 31.1519 39.1914 31.3794C39.1964 31.3768 39.2032 31.3754 39.21 31.3716C39.2388 31.3552 39.2676 31.336 39.3154 31.3052L39.3164 31.3042C39.9151 30.9199 40.5557 30.4923 41.168 30.103L41.3311 30.0063C41.3877 29.9755 41.4462 29.9469 41.5049 29.9253C41.6177 29.8837 41.8309 29.8292 42.0537 29.9399C42.2693 30.0472 42.3567 30.2429 42.3945 30.3501C42.4356 30.4664 42.4595 30.5998 42.4775 30.7231C42.7326 32.4704 41.9433 33.7925 40.6797 34.7407C39.9049 35.3219 39.0693 35.6909 38.1855 35.771C37.3125 35.8501 36.4315 35.6422 35.5605 35.1401C35.5594 35.1409 35.5579 35.1413 35.5566 35.1421C33.0404 36.7737 30.5245 38.3978 28.0127 40.0317C26.1511 41.2424 24.2846 42.498 22.3955 43.6938C22.1069 43.8781 21.9415 44.0154 21.8604 44.1372C21.8214 44.1957 21.7962 44.2552 21.8135 44.353L21.8457 44.4653L21.876 44.5435L21.8789 44.6274C21.9579 47.0391 20.0066 49.0496 17.6406 49.1509L17.6416 49.1519C16.992 49.1799 16.3578 49.0966 15.7432 48.9272H15.7422C15.7408 48.9269 15.7371 48.9256 15.7305 48.9243C15.7175 48.9217 15.7092 48.9198 15.6865 48.9155C15.6521 48.909 15.5839 48.8962 15.5127 48.8706C15.4387 48.8441 15.3361 48.7962 15.2441 48.7026C15.1468 48.6036 15.0877 48.4808 15.0635 48.3501C15.0111 48.0679 15.1448 47.8618 15.252 47.7515C15.3001 47.7019 15.3492 47.6638 15.3779 47.6421C15.418 47.6118 15.4215 47.61 15.4336 47.6001C15.9416 47.1783 16.4687 46.7227 17.0166 46.3062L17.1182 46.2173C17.142 46.1922 17.1566 46.1714 17.166 46.1548C17.181 46.1285 17.1953 46.091 17.1943 46.0161L17.1904 45.3267C17.1902 45.1416 17.1892 44.9937 17.1836 44.8628C17.1784 44.7412 17.1697 44.6679 17.1592 44.6206C17.1543 44.5987 17.1499 44.5856 17.1475 44.5796C17.1463 44.5768 17.1449 44.5754 17.1445 44.5747V44.5737C17.144 44.573 17.1196 44.535 16.8809 44.4282C16.7691 44.3782 16.6372 44.3234 16.4619 44.2495C16.2904 44.1772 16.0884 44.0901 15.8525 43.9819H15.8516C15.6529 43.8906 15.5174 43.8689 15.415 43.8774C15.3185 43.8856 15.2008 43.9252 15.043 44.0513L15.042 44.0503C14.7834 44.2571 14.5127 44.4416 14.2578 44.6128C13.9974 44.7877 13.7555 44.9494 13.5273 45.1255H13.5264C13.4299 45.1999 13.3141 45.2775 13.1846 45.3228C13.0435 45.372 12.8414 45.3959 12.6426 45.2847C12.4667 45.1861 12.3828 45.0292 12.3428 44.937C12.3001 44.8386 12.2728 44.7313 12.2529 44.6431V44.6421C12.059 43.777 12.2362 42.9638 12.5928 42.2524C13.6325 40.1759 16.3161 38.8584 18.6318 39.7905L18.6455 39.7954C18.652 39.7974 18.6622 39.7997 18.6729 39.8032C18.7071 39.8145 18.8058 39.8478 18.8994 39.9282L18.9004 39.9292C18.9733 39.9924 19.0256 40.0163 19.0566 40.0259C19.0854 40.0347 19.1143 40.0368 19.1523 40.0308C19.2502 40.0153 19.3812 39.953 19.6055 39.8101C21.9128 38.3384 24.2174 36.8828 26.4834 35.3657L29.376 33.4243C30.3435 32.7781 31.3159 32.1363 32.2969 31.5093C32.5379 31.3552 32.6589 31.2271 32.7266 31.104C32.7764 31.0132 32.8127 30.8966 32.8252 30.7251L32.8291 30.5337C32.7764 28.3631 34.4947 26.2882 36.5996 25.8716Z" fill="#02A653"/>
<path d="M36.5996 25.8716C37.6531 25.6629 38.6674 25.8334 39.6152 26.2749L39.6143 26.2759C39.7111 26.3209 39.8239 26.3821 39.917 26.4731C40.0171 26.5712 40.1233 26.7332 40.1152 26.9507C40.1079 27.1497 40.0073 27.292 39.9385 27.3696C39.8667 27.4506 39.7816 27.5162 39.709 27.5659L39.708 27.5649C39.1349 27.959 38.5301 28.4036 37.9219 28.7993C37.8164 28.8679 37.7732 28.9188 37.7529 28.9526C37.7362 28.9805 37.7173 29.0259 37.7188 29.1226L37.7236 29.4937C37.7248 29.8713 37.7102 30.2701 37.6396 30.6714C37.6382 30.6793 37.6383 30.6862 37.6377 30.6919C37.6469 30.6972 37.6588 30.7058 37.6768 30.7134C38.1864 30.9275 38.6915 31.1519 39.1914 31.3794C39.1964 31.3768 39.2032 31.3754 39.21 31.3716C39.2388 31.3552 39.2676 31.336 39.3154 31.3052L39.3164 31.3042C39.9151 30.9199 40.5557 30.4923 41.168 30.103L41.3311 30.0063C41.3877 29.9755 41.4462 29.9469 41.5049 29.9253C41.6177 29.8837 41.8309 29.8292 42.0537 29.9399C42.2693 30.0472 42.3567 30.2429 42.3945 30.3501C42.4356 30.4664 42.4595 30.5998 42.4775 30.7231C42.7326 32.4704 41.9433 33.7925 40.6797 34.7407C39.9049 35.3219 39.0693 35.6909 38.1855 35.771C37.3125 35.8501 36.4315 35.6422 35.5605 35.1401C35.5594 35.1409 35.5579 35.1413 35.5566 35.1421C33.0404 36.7737 30.5245 38.3978 28.0127 40.0317C26.1511 41.2424 24.2846 42.498 22.3955 43.6938C22.1069 43.8781 21.9415 44.0154 21.8604 44.1372C21.8214 44.1957 21.7962 44.2552 21.8135 44.353L21.8457 44.4653L21.876 44.5435L21.8789 44.6274C21.9579 47.0391 20.0066 49.0496 17.6406 49.1509L17.6416 49.1519C16.992 49.1799 16.3578 49.0966 15.7432 48.9272H15.7422C15.7408 48.9269 15.7371 48.9256 15.7305 48.9243C15.7175 48.9217 15.7092 48.9198 15.6865 48.9155C15.6521 48.909 15.5839 48.8962 15.5127 48.8706C15.4387 48.8441 15.3361 48.7962 15.2441 48.7026C15.1468 48.6036 15.0877 48.4808 15.0635 48.3501C15.0111 48.0679 15.1448 47.8618 15.252 47.7515C15.3001 47.7019 15.3492 47.6638 15.3779 47.6421C15.418 47.6118 15.4215 47.61 15.4336 47.6001C15.9416 47.1783 16.4687 46.7227 17.0166 46.3062L17.1182 46.2173C17.142 46.1922 17.1566 46.1714 17.166 46.1548C17.181 46.1285 17.1953 46.091 17.1943 46.0161L17.1904 45.3267C17.1902 45.1416 17.1892 44.9937 17.1836 44.8628C17.1784 44.7412 17.1697 44.6679 17.1592 44.6206C17.1543 44.5987 17.1499 44.5856 17.1475 44.5796C17.1463 44.5768 17.1449 44.5754 17.1445 44.5747V44.5737C17.144 44.573 17.1196 44.535 16.8809 44.4282C16.7691 44.3782 16.6372 44.3234 16.4619 44.2495C16.2904 44.1772 16.0884 44.0901 15.8525 43.9819H15.8516C15.6529 43.8906 15.5174 43.8689 15.415 43.8774C15.3185 43.8856 15.2008 43.9252 15.043 44.0513L15.042 44.0503C14.7834 44.2571 14.5127 44.4416 14.2578 44.6128C13.9974 44.7877 13.7555 44.9494 13.5273 45.1255H13.5264C13.4299 45.1999 13.3141 45.2775 13.1846 45.3228C13.0435 45.372 12.8414 45.3959 12.6426 45.2847C12.4667 45.1861 12.3828 45.0292 12.3428 44.937C12.3001 44.8386 12.2728 44.7313 12.2529 44.6431V44.6421C12.059 43.777 12.2362 42.9638 12.5928 42.2524C13.6325 40.1759 16.3161 38.8584 18.6318 39.7905L18.6455 39.7954C18.652 39.7974 18.6622 39.7997 18.6729 39.8032C18.7071 39.8145 18.8058 39.8478 18.8994 39.9282L18.9004 39.9292C18.9733 39.9924 19.0256 40.0163 19.0566 40.0259C19.0854 40.0347 19.1143 40.0368 19.1523 40.0308C19.2502 40.0153 19.3812 39.953 19.6055 39.8101C21.9128 38.3384 24.2174 36.8828 26.4834 35.3657L29.376 33.4243C30.3435 32.7781 31.3159 32.1363 32.2969 31.5093C32.5379 31.3552 32.6589 31.2271 32.7266 31.104C32.7764 31.0132 32.8127 30.8966 32.8252 30.7251L32.8291 30.5337C32.7764 28.3631 34.4947 26.2882 36.5996 25.8716Z" stroke="#02A653"/>
</svg>
