<svg width="64" height="64" viewBox="0 0 64 64" fill="none" xmlns="http://www.w3.org/2000/svg">
<mask id="path-1-outside-1_54_671" maskUnits="userSpaceOnUse" x="-0.799805" y="-0.800049" width="65" height="64" fill="black">
<rect fill="white" x="-0.799805" y="-0.800049" width="65" height="64"/>
<path d="M63.3404 29.368C62.9774 29.7709 62.486 29.9733 62.0152 30.1991C60.1031 31.114 58.0977 31.7879 56.0951 32.4674C55.078 32.8119 55.115 32.814 54.9798 33.886C54.7643 35.597 54.533 37.3093 54.0183 38.964C53.9332 39.2371 53.9916 39.4176 54.1885 39.6009C55.1343 40.4814 56.1253 41.3112 57.0367 42.2294C58.1252 43.3268 59.1498 44.4798 60.1347 45.6699C60.2534 45.8133 60.2733 45.9348 60.1827 46.1009C59.4552 47.4371 58.714 48.7645 57.8534 50.0211C57.675 50.2819 57.4643 50.3752 57.1561 50.3272C56.8082 50.273 56.4959 50.1611 56.2303 49.9216C55.2598 49.0458 54.4191 48.0473 53.5496 47.0775C51.595 44.8985 49.661 42.7016 47.7084 40.5205C47.4744 40.259 47.4449 40.0346 47.5972 39.7217C48.473 37.9235 49.1092 36.0458 49.4214 34.0651C49.6115 32.86 49.5491 31.6445 49.51 30.4359C49.4681 29.145 49.3102 27.8588 48.9493 26.6125C48.1806 23.9565 46.8883 21.5853 45.0188 19.5408C42.4177 16.6974 39.2339 14.8458 35.4764 13.9954C34.3124 13.7319 33.121 13.7147 31.9316 13.7182C31.1087 13.7202 30.2838 13.6955 29.465 13.795C27.4486 14.04 25.5414 14.6447 23.7302 15.5623C21.9582 16.46 20.3913 17.637 19.0126 19.0611C16.5199 21.6354 14.9078 24.6826 14.2585 28.2054C13.9682 29.7805 13.9792 31.3865 14.0588 32.9904C14.1741 35.306 14.8254 37.4733 15.8734 39.5137C17.7209 43.11 20.5039 45.7728 24.1399 47.5421C26.9071 48.8887 29.839 49.3965 32.8959 49.2497C34.0276 49.1955 35.1456 49.0342 36.2409 48.726C36.8991 48.5407 36.93 48.5586 37.3294 49.1055C39.7109 52.3641 42.0889 55.6255 44.4697 58.8854C44.5589 59.0076 44.6324 59.1277 44.6303 59.2897C44.6248 59.7817 44.6221 60.2731 44.631 60.7652C44.6344 60.9574 44.548 61.0583 44.3791 61.1221C42.9146 61.6753 41.4514 62.2332 39.938 62.6457C39.667 62.7198 39.5475 62.5846 39.4068 62.3966C37.8071 60.2546 36.4797 57.9472 35.2657 55.5719C35.1353 55.3173 34.976 55.2473 34.7063 55.2336C33.1518 55.1574 31.596 55.2233 30.0415 55.191C29.6757 55.1835 29.301 55.2212 28.9462 55.1547C28.5138 55.0737 28.2578 55.2322 28.0313 55.5726C27.2846 56.6961 26.61 57.8663 25.8152 58.9589C24.9937 60.0872 24.1688 61.2106 23.2265 62.2442C23.0425 62.446 22.8874 62.5256 22.6095 62.4199C21.2321 61.8942 19.8313 61.4316 18.482 60.8318C18.1856 60.7 18.0812 60.5223 18.0943 60.2031C18.1732 58.2691 18.4354 56.3584 18.8108 54.4622C18.9528 53.7457 19.0922 53.0271 19.2733 52.3202C19.3564 51.997 19.2644 51.8027 19.0228 51.6154C18.2823 51.0409 17.5439 50.4631 16.8136 49.8742C15.9935 49.2133 15.253 48.4638 14.4891 47.7412C14.2963 47.5586 14.1357 47.4845 13.8584 47.5874C11.3115 48.5297 8.68981 49.1948 6.01596 49.6656C5.66869 49.7267 5.41819 49.6601 5.21641 49.3663C4.32764 48.0699 3.618 46.674 2.91866 45.2718C2.84179 45.1181 2.89738 45.0165 3.00239 44.9088C4.72708 43.1354 6.55608 41.4779 8.52853 39.9825C8.81129 39.7683 9.09542 39.5576 9.3521 39.3112C9.48455 39.1843 9.51475 39.0607 9.4571 38.8844C9.01375 37.5207 8.76668 36.1144 8.58206 34.6972C8.51137 34.1543 8.46951 33.6073 8.41941 33.0624C8.38921 32.733 8.23136 32.5223 7.91154 32.4043C6.37764 31.836 4.88149 31.1771 3.41417 30.4551C2.31402 29.9143 1.2427 29.3227 0.200195 28.6817C0.200195 28.5218 0.200195 28.3612 0.200195 28.2013C0.215294 28.1347 0.234511 28.0688 0.244119 28.0016C0.439716 26.6434 0.69365 25.2989 1.067 23.9764C1.17818 23.5831 1.40947 23.4267 1.789 23.3731C2.62766 23.2537 3.47251 23.2057 4.31598 23.1919C6.134 23.1617 7.95203 23.1714 9.77006 23.1741C10.0027 23.1748 10.1516 23.1192 10.2498 22.8913C11.0486 21.0472 12.0918 19.3424 13.2462 17.7042C13.3986 17.4874 13.413 17.3233 13.2778 17.09C11.8777 14.6694 10.6808 12.1575 9.82359 9.48844C9.72613 9.1844 9.78104 9.01557 10.0013 8.81037C11.1344 7.75757 12.3712 6.83449 13.5955 5.89562C13.7904 5.74669 13.9256 5.8215 14.0821 5.93611C16.3346 7.58256 18.5932 9.22009 20.5794 11.1953C20.7283 11.3435 20.8477 11.3552 21.0275 11.2612C21.4428 11.0443 21.8648 10.8398 22.2904 10.6442C23.687 10.0025 25.1502 9.55432 26.6367 9.18097C26.962 9.0993 27.1014 8.94282 27.1618 8.61546C27.3196 7.76237 27.5111 6.91616 27.6991 6.06857C28.1459 4.05563 28.7753 2.10034 29.5741 0.199951C29.5968 0.199951 29.6201 0.199951 29.6428 0.199951C29.8198 0.267896 30.0051 0.245934 30.1863 0.242502C31.4903 0.217109 32.7922 0.29123 34.0941 0.323487C34.8251 0.341331 34.8292 0.350253 35.02 1.05166C35.7138 3.60129 36.1929 6.19485 36.5697 8.80831C36.606 9.06155 36.7145 9.15695 36.9437 9.2098C38.9024 9.66139 40.7705 10.3642 42.5584 11.279C42.7972 11.4012 42.9592 11.384 43.1678 11.209C45.3105 9.41157 47.5842 7.80355 50.0343 6.4481C50.2903 6.30672 50.4571 6.29985 50.6987 6.48927C51.8976 7.42677 53.0444 8.4226 54.1714 9.44451C54.4136 9.66413 54.4287 9.83228 54.2853 10.1157C53.0685 12.524 51.8887 14.9521 50.3706 17.1929C50.1997 17.4455 50.1942 17.6411 50.372 17.8998C50.8702 18.6253 51.3465 19.3658 51.8194 20.1084C52.4096 21.0369 52.8653 22.0369 53.3203 23.0355C53.4109 23.2338 53.518 23.3869 53.774 23.3786C55.0443 23.3374 56.3065 23.4589 57.5693 23.5742C59.0709 23.7115 60.5712 23.8632 62.0536 24.1487C62.5793 24.2502 62.5697 24.2694 62.6775 24.7993C62.9403 26.0861 63.1297 27.3853 63.339 28.681C63.3404 28.9103 63.3404 29.1395 63.3404 29.368Z"/>
</mask>
<path d="M63.3404 29.368C62.9774 29.7709 62.486 29.9733 62.0152 30.1991C60.1031 31.114 58.0977 31.7879 56.0951 32.4674C55.078 32.8119 55.115 32.814 54.9798 33.886C54.7643 35.597 54.533 37.3093 54.0183 38.964C53.9332 39.2371 53.9916 39.4176 54.1885 39.6009C55.1343 40.4814 56.1253 41.3112 57.0367 42.2294C58.1252 43.3268 59.1498 44.4798 60.1347 45.6699C60.2534 45.8133 60.2733 45.9348 60.1827 46.1009C59.4552 47.4371 58.714 48.7645 57.8534 50.0211C57.675 50.2819 57.4643 50.3752 57.1561 50.3272C56.8082 50.273 56.4959 50.1611 56.2303 49.9216C55.2598 49.0458 54.4191 48.0473 53.5496 47.0775C51.595 44.8985 49.661 42.7016 47.7084 40.5205C47.4744 40.259 47.4449 40.0346 47.5972 39.7217C48.473 37.9235 49.1092 36.0458 49.4214 34.0651C49.6115 32.86 49.5491 31.6445 49.51 30.4359C49.4681 29.145 49.3102 27.8588 48.9493 26.6125C48.1806 23.9565 46.8883 21.5853 45.0188 19.5408C42.4177 16.6974 39.2339 14.8458 35.4764 13.9954C34.3124 13.7319 33.121 13.7147 31.9316 13.7182C31.1087 13.7202 30.2838 13.6955 29.465 13.795C27.4486 14.04 25.5414 14.6447 23.7302 15.5623C21.9582 16.46 20.3913 17.637 19.0126 19.0611C16.5199 21.6354 14.9078 24.6826 14.2585 28.2054C13.9682 29.7805 13.9792 31.3865 14.0588 32.9904C14.1741 35.306 14.8254 37.4733 15.8734 39.5137C17.7209 43.11 20.5039 45.7728 24.1399 47.5421C26.9071 48.8887 29.839 49.3965 32.8959 49.2497C34.0276 49.1955 35.1456 49.0342 36.2409 48.726C36.8991 48.5407 36.93 48.5586 37.3294 49.1055C39.7109 52.3641 42.0889 55.6255 44.4697 58.8854C44.5589 59.0076 44.6324 59.1277 44.6303 59.2897C44.6248 59.7817 44.6221 60.2731 44.631 60.7652C44.6344 60.9574 44.548 61.0583 44.3791 61.1221C42.9146 61.6753 41.4514 62.2332 39.938 62.6457C39.667 62.7198 39.5475 62.5846 39.4068 62.3966C37.8071 60.2546 36.4797 57.9472 35.2657 55.5719C35.1353 55.3173 34.976 55.2473 34.7063 55.2336C33.1518 55.1574 31.596 55.2233 30.0415 55.191C29.6757 55.1835 29.301 55.2212 28.9462 55.1547C28.5138 55.0737 28.2578 55.2322 28.0313 55.5726C27.2846 56.6961 26.61 57.8663 25.8152 58.9589C24.9937 60.0872 24.1688 61.2106 23.2265 62.2442C23.0425 62.446 22.8874 62.5256 22.6095 62.4199C21.2321 61.8942 19.8313 61.4316 18.482 60.8318C18.1856 60.7 18.0812 60.5223 18.0943 60.2031C18.1732 58.2691 18.4354 56.3584 18.8108 54.4622C18.9528 53.7457 19.0922 53.0271 19.2733 52.3202C19.3564 51.997 19.2644 51.8027 19.0228 51.6154C18.2823 51.0409 17.5439 50.4631 16.8136 49.8742C15.9935 49.2133 15.253 48.4638 14.4891 47.7412C14.2963 47.5586 14.1357 47.4845 13.8584 47.5874C11.3115 48.5297 8.68981 49.1948 6.01596 49.6656C5.66869 49.7267 5.41819 49.6601 5.21641 49.3663C4.32764 48.0699 3.618 46.674 2.91866 45.2718C2.84179 45.1181 2.89738 45.0165 3.00239 44.9088C4.72708 43.1354 6.55608 41.4779 8.52853 39.9825C8.81129 39.7683 9.09542 39.5576 9.3521 39.3112C9.48455 39.1843 9.51475 39.0607 9.4571 38.8844C9.01375 37.5207 8.76668 36.1144 8.58206 34.6972C8.51137 34.1543 8.46951 33.6073 8.41941 33.0624C8.38921 32.733 8.23136 32.5223 7.91154 32.4043C6.37764 31.836 4.88149 31.1771 3.41417 30.4551C2.31402 29.9143 1.2427 29.3227 0.200195 28.6817C0.200195 28.5218 0.200195 28.3612 0.200195 28.2013C0.215294 28.1347 0.234511 28.0688 0.244119 28.0016C0.439716 26.6434 0.69365 25.2989 1.067 23.9764C1.17818 23.5831 1.40947 23.4267 1.789 23.3731C2.62766 23.2537 3.47251 23.2057 4.31598 23.1919C6.134 23.1617 7.95203 23.1714 9.77006 23.1741C10.0027 23.1748 10.1516 23.1192 10.2498 22.8913C11.0486 21.0472 12.0918 19.3424 13.2462 17.7042C13.3986 17.4874 13.413 17.3233 13.2778 17.09C11.8777 14.6694 10.6808 12.1575 9.82359 9.48844C9.72613 9.1844 9.78104 9.01557 10.0013 8.81037C11.1344 7.75757 12.3712 6.83449 13.5955 5.89562C13.7904 5.74669 13.9256 5.8215 14.0821 5.93611C16.3346 7.58256 18.5932 9.22009 20.5794 11.1953C20.7283 11.3435 20.8477 11.3552 21.0275 11.2612C21.4428 11.0443 21.8648 10.8398 22.2904 10.6442C23.687 10.0025 25.1502 9.55432 26.6367 9.18097C26.962 9.0993 27.1014 8.94282 27.1618 8.61546C27.3196 7.76237 27.5111 6.91616 27.6991 6.06857C28.1459 4.05563 28.7753 2.10034 29.5741 0.199951C29.5968 0.199951 29.6201 0.199951 29.6428 0.199951C29.8198 0.267896 30.0051 0.245934 30.1863 0.242502C31.4903 0.217109 32.7922 0.29123 34.0941 0.323487C34.8251 0.341331 34.8292 0.350253 35.02 1.05166C35.7138 3.60129 36.1929 6.19485 36.5697 8.80831C36.606 9.06155 36.7145 9.15695 36.9437 9.2098C38.9024 9.66139 40.7705 10.3642 42.5584 11.279C42.7972 11.4012 42.9592 11.384 43.1678 11.209C45.3105 9.41157 47.5842 7.80355 50.0343 6.4481C50.2903 6.30672 50.4571 6.29985 50.6987 6.48927C51.8976 7.42677 53.0444 8.4226 54.1714 9.44451C54.4136 9.66413 54.4287 9.83228 54.2853 10.1157C53.0685 12.524 51.8887 14.9521 50.3706 17.1929C50.1997 17.4455 50.1942 17.6411 50.372 17.8998C50.8702 18.6253 51.3465 19.3658 51.8194 20.1084C52.4096 21.0369 52.8653 22.0369 53.3203 23.0355C53.4109 23.2338 53.518 23.3869 53.774 23.3786C55.0443 23.3374 56.3065 23.4589 57.5693 23.5742C59.0709 23.7115 60.5712 23.8632 62.0536 24.1487C62.5793 24.2502 62.5697 24.2694 62.6775 24.7993C62.9403 26.0861 63.1297 27.3853 63.339 28.681C63.3404 28.9103 63.3404 29.1395 63.3404 29.368Z" fill="black"/>
<path d="M63.3404 29.368C62.9774 29.7709 62.486 29.9733 62.0152 30.1991C60.1031 31.114 58.0977 31.7879 56.0951 32.4674C55.078 32.8119 55.115 32.814 54.9798 33.886C54.7643 35.597 54.533 37.3093 54.0183 38.964C53.9332 39.2371 53.9916 39.4176 54.1885 39.6009C55.1343 40.4814 56.1253 41.3112 57.0367 42.2294C58.1252 43.3268 59.1498 44.4798 60.1347 45.6699C60.2534 45.8133 60.2733 45.9348 60.1827 46.1009C59.4552 47.4371 58.714 48.7645 57.8534 50.0211C57.675 50.2819 57.4643 50.3752 57.1561 50.3272C56.8082 50.273 56.4959 50.1611 56.2303 49.9216C55.2598 49.0458 54.4191 48.0473 53.5496 47.0775C51.595 44.8985 49.661 42.7016 47.7084 40.5205C47.4744 40.259 47.4449 40.0346 47.5972 39.7217C48.473 37.9235 49.1092 36.0458 49.4214 34.0651C49.6115 32.86 49.5491 31.6445 49.51 30.4359C49.4681 29.145 49.3102 27.8588 48.9493 26.6125C48.1806 23.9565 46.8883 21.5853 45.0188 19.5408C42.4177 16.6974 39.2339 14.8458 35.4764 13.9954C34.3124 13.7319 33.121 13.7147 31.9316 13.7182C31.1087 13.7202 30.2838 13.6955 29.465 13.795C27.4486 14.04 25.5414 14.6447 23.7302 15.5623C21.9582 16.46 20.3913 17.637 19.0126 19.0611C16.5199 21.6354 14.9078 24.6826 14.2585 28.2054C13.9682 29.7805 13.9792 31.3865 14.0588 32.9904C14.1741 35.306 14.8254 37.4733 15.8734 39.5137C17.7209 43.11 20.5039 45.7728 24.1399 47.5421C26.9071 48.8887 29.839 49.3965 32.8959 49.2497C34.0276 49.1955 35.1456 49.0342 36.2409 48.726C36.8991 48.5407 36.93 48.5586 37.3294 49.1055C39.7109 52.3641 42.0889 55.6255 44.4697 58.8854C44.5589 59.0076 44.6324 59.1277 44.6303 59.2897C44.6248 59.7817 44.6221 60.2731 44.631 60.7652C44.6344 60.9574 44.548 61.0583 44.3791 61.1221C42.9146 61.6753 41.4514 62.2332 39.938 62.6457C39.667 62.7198 39.5475 62.5846 39.4068 62.3966C37.8071 60.2546 36.4797 57.9472 35.2657 55.5719C35.1353 55.3173 34.976 55.2473 34.7063 55.2336C33.1518 55.1574 31.596 55.2233 30.0415 55.191C29.6757 55.1835 29.301 55.2212 28.9462 55.1547C28.5138 55.0737 28.2578 55.2322 28.0313 55.5726C27.2846 56.6961 26.61 57.8663 25.8152 58.9589C24.9937 60.0872 24.1688 61.2106 23.2265 62.2442C23.0425 62.446 22.8874 62.5256 22.6095 62.4199C21.2321 61.8942 19.8313 61.4316 18.482 60.8318C18.1856 60.7 18.0812 60.5223 18.0943 60.2031C18.1732 58.2691 18.4354 56.3584 18.8108 54.4622C18.9528 53.7457 19.0922 53.0271 19.2733 52.3202C19.3564 51.997 19.2644 51.8027 19.0228 51.6154C18.2823 51.0409 17.5439 50.4631 16.8136 49.8742C15.9935 49.2133 15.253 48.4638 14.4891 47.7412C14.2963 47.5586 14.1357 47.4845 13.8584 47.5874C11.3115 48.5297 8.68981 49.1948 6.01596 49.6656C5.66869 49.7267 5.41819 49.6601 5.21641 49.3663C4.32764 48.0699 3.618 46.674 2.91866 45.2718C2.84179 45.1181 2.89738 45.0165 3.00239 44.9088C4.72708 43.1354 6.55608 41.4779 8.52853 39.9825C8.81129 39.7683 9.09542 39.5576 9.3521 39.3112C9.48455 39.1843 9.51475 39.0607 9.4571 38.8844C9.01375 37.5207 8.76668 36.1144 8.58206 34.6972C8.51137 34.1543 8.46951 33.6073 8.41941 33.0624C8.38921 32.733 8.23136 32.5223 7.91154 32.4043C6.37764 31.836 4.88149 31.1771 3.41417 30.4551C2.31402 29.9143 1.2427 29.3227 0.200195 28.6817C0.200195 28.5218 0.200195 28.3612 0.200195 28.2013C0.215294 28.1347 0.234511 28.0688 0.244119 28.0016C0.439716 26.6434 0.69365 25.2989 1.067 23.9764C1.17818 23.5831 1.40947 23.4267 1.789 23.3731C2.62766 23.2537 3.47251 23.2057 4.31598 23.1919C6.134 23.1617 7.95203 23.1714 9.77006 23.1741C10.0027 23.1748 10.1516 23.1192 10.2498 22.8913C11.0486 21.0472 12.0918 19.3424 13.2462 17.7042C13.3986 17.4874 13.413 17.3233 13.2778 17.09C11.8777 14.6694 10.6808 12.1575 9.82359 9.48844C9.72613 9.1844 9.78104 9.01557 10.0013 8.81037C11.1344 7.75757 12.3712 6.83449 13.5955 5.89562C13.7904 5.74669 13.9256 5.8215 14.0821 5.93611C16.3346 7.58256 18.5932 9.22009 20.5794 11.1953C20.7283 11.3435 20.8477 11.3552 21.0275 11.2612C21.4428 11.0443 21.8648 10.8398 22.2904 10.6442C23.687 10.0025 25.1502 9.55432 26.6367 9.18097C26.962 9.0993 27.1014 8.94282 27.1618 8.61546C27.3196 7.76237 27.5111 6.91616 27.6991 6.06857C28.1459 4.05563 28.7753 2.10034 29.5741 0.199951C29.5968 0.199951 29.6201 0.199951 29.6428 0.199951C29.8198 0.267896 30.0051 0.245934 30.1863 0.242502C31.4903 0.217109 32.7922 0.29123 34.0941 0.323487C34.8251 0.341331 34.8292 0.350253 35.02 1.05166C35.7138 3.60129 36.1929 6.19485 36.5697 8.80831C36.606 9.06155 36.7145 9.15695 36.9437 9.2098C38.9024 9.66139 40.7705 10.3642 42.5584 11.279C42.7972 11.4012 42.9592 11.384 43.1678 11.209C45.3105 9.41157 47.5842 7.80355 50.0343 6.4481C50.2903 6.30672 50.4571 6.29985 50.6987 6.48927C51.8976 7.42677 53.0444 8.4226 54.1714 9.44451C54.4136 9.66413 54.4287 9.83228 54.2853 10.1157C53.0685 12.524 51.8887 14.9521 50.3706 17.1929C50.1997 17.4455 50.1942 17.6411 50.372 17.8998C50.8702 18.6253 51.3465 19.3658 51.8194 20.1084C52.4096 21.0369 52.8653 22.0369 53.3203 23.0355C53.4109 23.2338 53.518 23.3869 53.774 23.3786C55.0443 23.3374 56.3065 23.4589 57.5693 23.5742C59.0709 23.7115 60.5712 23.8632 62.0536 24.1487C62.5793 24.2502 62.5697 24.2694 62.6775 24.7993C62.9403 26.0861 63.1297 27.3853 63.339 28.681C63.3404 28.9103 63.3404 29.1395 63.3404 29.368Z" fill="white"/>
<path d="M63.3404 29.368C62.9774 29.7709 62.486 29.9733 62.0152 30.1991C60.1031 31.114 58.0977 31.7879 56.0951 32.4674C55.078 32.8119 55.115 32.814 54.9798 33.886C54.7643 35.597 54.533 37.3093 54.0183 38.964C53.9332 39.2371 53.9916 39.4176 54.1885 39.6009C55.1343 40.4814 56.1253 41.3112 57.0367 42.2294C58.1252 43.3268 59.1498 44.4798 60.1347 45.6699C60.2534 45.8133 60.2733 45.9348 60.1827 46.1009C59.4552 47.4371 58.714 48.7645 57.8534 50.0211C57.675 50.2819 57.4643 50.3752 57.1561 50.3272C56.8082 50.273 56.4959 50.1611 56.2303 49.9216C55.2598 49.0458 54.4191 48.0473 53.5496 47.0775C51.595 44.8985 49.661 42.7016 47.7084 40.5205C47.4744 40.259 47.4449 40.0346 47.5972 39.7217C48.473 37.9235 49.1092 36.0458 49.4214 34.0651C49.6115 32.86 49.5491 31.6445 49.51 30.4359C49.4681 29.145 49.3102 27.8588 48.9493 26.6125C48.1806 23.9565 46.8883 21.5853 45.0188 19.5408C42.4177 16.6974 39.2339 14.8458 35.4764 13.9954C34.3124 13.7319 33.121 13.7147 31.9316 13.7182C31.1087 13.7202 30.2838 13.6955 29.465 13.795C27.4486 14.04 25.5414 14.6447 23.7302 15.5623C21.9582 16.46 20.3913 17.637 19.0126 19.0611C16.5199 21.6354 14.9078 24.6826 14.2585 28.2054C13.9682 29.7805 13.9792 31.3865 14.0588 32.9904C14.1741 35.306 14.8254 37.4733 15.8734 39.5137C17.7209 43.11 20.5039 45.7728 24.1399 47.5421C26.9071 48.8887 29.839 49.3965 32.8959 49.2497C34.0276 49.1955 35.1456 49.0342 36.2409 48.726C36.8991 48.5407 36.93 48.5586 37.3294 49.1055C39.7109 52.3641 42.0889 55.6255 44.4697 58.8854C44.5589 59.0076 44.6324 59.1277 44.6303 59.2897C44.6248 59.7817 44.6221 60.2731 44.631 60.7652C44.6344 60.9574 44.548 61.0583 44.3791 61.1221C42.9146 61.6753 41.4514 62.2332 39.938 62.6457C39.667 62.7198 39.5475 62.5846 39.4068 62.3966C37.8071 60.2546 36.4797 57.9472 35.2657 55.5719C35.1353 55.3173 34.976 55.2473 34.7063 55.2336C33.1518 55.1574 31.596 55.2233 30.0415 55.191C29.6757 55.1835 29.301 55.2212 28.9462 55.1547C28.5138 55.0737 28.2578 55.2322 28.0313 55.5726C27.2846 56.6961 26.61 57.8663 25.8152 58.9589C24.9937 60.0872 24.1688 61.2106 23.2265 62.2442C23.0425 62.446 22.8874 62.5256 22.6095 62.4199C21.2321 61.8942 19.8313 61.4316 18.482 60.8318C18.1856 60.7 18.0812 60.5223 18.0943 60.2031C18.1732 58.2691 18.4354 56.3584 18.8108 54.4622C18.9528 53.7457 19.0922 53.0271 19.2733 52.3202C19.3564 51.997 19.2644 51.8027 19.0228 51.6154C18.2823 51.0409 17.5439 50.4631 16.8136 49.8742C15.9935 49.2133 15.253 48.4638 14.4891 47.7412C14.2963 47.5586 14.1357 47.4845 13.8584 47.5874C11.3115 48.5297 8.68981 49.1948 6.01596 49.6656C5.66869 49.7267 5.41819 49.6601 5.21641 49.3663C4.32764 48.0699 3.618 46.674 2.91866 45.2718C2.84179 45.1181 2.89738 45.0165 3.00239 44.9088C4.72708 43.1354 6.55608 41.4779 8.52853 39.9825C8.81129 39.7683 9.09542 39.5576 9.3521 39.3112C9.48455 39.1843 9.51475 39.0607 9.4571 38.8844C9.01375 37.5207 8.76668 36.1144 8.58206 34.6972C8.51137 34.1543 8.46951 33.6073 8.41941 33.0624C8.38921 32.733 8.23136 32.5223 7.91154 32.4043C6.37764 31.836 4.88149 31.1771 3.41417 30.4551C2.31402 29.9143 1.2427 29.3227 0.200195 28.6817C0.200195 28.5218 0.200195 28.3612 0.200195 28.2013C0.215294 28.1347 0.234511 28.0688 0.244119 28.0016C0.439716 26.6434 0.69365 25.2989 1.067 23.9764C1.17818 23.5831 1.40947 23.4267 1.789 23.3731C2.62766 23.2537 3.47251 23.2057 4.31598 23.1919C6.134 23.1617 7.95203 23.1714 9.77006 23.1741C10.0027 23.1748 10.1516 23.1192 10.2498 22.8913C11.0486 21.0472 12.0918 19.3424 13.2462 17.7042C13.3986 17.4874 13.413 17.3233 13.2778 17.09C11.8777 14.6694 10.6808 12.1575 9.82359 9.48844C9.72613 9.1844 9.78104 9.01557 10.0013 8.81037C11.1344 7.75757 12.3712 6.83449 13.5955 5.89562C13.7904 5.74669 13.9256 5.8215 14.0821 5.93611C16.3346 7.58256 18.5932 9.22009 20.5794 11.1953C20.7283 11.3435 20.8477 11.3552 21.0275 11.2612C21.4428 11.0443 21.8648 10.8398 22.2904 10.6442C23.687 10.0025 25.1502 9.55432 26.6367 9.18097C26.962 9.0993 27.1014 8.94282 27.1618 8.61546C27.3196 7.76237 27.5111 6.91616 27.6991 6.06857C28.1459 4.05563 28.7753 2.10034 29.5741 0.199951C29.5968 0.199951 29.6201 0.199951 29.6428 0.199951C29.8198 0.267896 30.0051 0.245934 30.1863 0.242502C31.4903 0.217109 32.7922 0.29123 34.0941 0.323487C34.8251 0.341331 34.8292 0.350253 35.02 1.05166C35.7138 3.60129 36.1929 6.19485 36.5697 8.80831C36.606 9.06155 36.7145 9.15695 36.9437 9.2098C38.9024 9.66139 40.7705 10.3642 42.5584 11.279C42.7972 11.4012 42.9592 11.384 43.1678 11.209C45.3105 9.41157 47.5842 7.80355 50.0343 6.4481C50.2903 6.30672 50.4571 6.29985 50.6987 6.48927C51.8976 7.42677 53.0444 8.4226 54.1714 9.44451C54.4136 9.66413 54.4287 9.83228 54.2853 10.1157C53.0685 12.524 51.8887 14.9521 50.3706 17.1929C50.1997 17.4455 50.1942 17.6411 50.372 17.8998C50.8702 18.6253 51.3465 19.3658 51.8194 20.1084C52.4096 21.0369 52.8653 22.0369 53.3203 23.0355C53.4109 23.2338 53.518 23.3869 53.774 23.3786C55.0443 23.3374 56.3065 23.4589 57.5693 23.5742C59.0709 23.7115 60.5712 23.8632 62.0536 24.1487C62.5793 24.2502 62.5697 24.2694 62.6775 24.7993C62.9403 26.0861 63.1297 27.3853 63.339 28.681C63.3404 28.9103 63.3404 29.1395 63.3404 29.368Z" stroke="white" stroke-width="0.4" mask="url(#path-1-outside-1_54_671)"/>
<path d="M33.0092 22.7568C34.0524 22.7308 34.8787 23.0979 35.6158 23.7822C37.9039 25.909 40.0939 28.1286 42.1776 30.4565C43.1768 31.5731 43.2976 33.8373 42.0897 35.1248C41.7438 35.494 41.3732 35.8289 40.9875 36.1522C40.6341 36.4493 40.6217 36.4967 40.9203 36.8337C42.5214 38.638 44.1301 40.4361 45.7313 42.2397C48.3729 45.2149 51.0158 48.1886 53.6471 51.172C54.8495 52.535 56.0369 53.9117 57.2118 55.2988C57.9379 56.1553 57.9894 57.1724 57.7842 58.219C57.7245 58.5244 57.5371 58.7756 57.2928 58.9856C56.0355 60.0665 54.7274 61.085 53.4241 62.1097C52.7796 62.6162 52.0892 62.6635 51.3542 62.4665C50.6047 62.2655 49.9761 61.8434 49.497 61.2353C48.1457 59.5195 46.8753 57.7427 45.5858 55.9803C42.8714 52.2715 40.1674 48.5551 37.4613 44.8401C36.6404 43.7132 35.821 42.5842 35.0146 41.4463C34.8581 41.226 34.7538 41.1958 34.5362 41.3702C34.0984 41.7188 33.6481 42.053 33.1657 42.3406C31.7752 43.1703 29.5495 42.7647 28.5667 41.4683C27.4131 39.9461 26.3706 38.3449 25.3068 36.7589C24.6191 35.7335 23.9307 34.7096 23.3028 33.6451C22.3852 32.0885 22.6817 30.2019 24.0453 29.0132C24.37 28.7304 24.4276 28.7298 24.6973 29.0688C26.2758 31.0563 27.8502 33.0473 29.4301 35.0335C29.7362 35.4178 30.0546 35.7932 30.382 36.1597C30.916 36.7568 31.8638 36.8817 32.526 36.4185C33.5486 35.704 34.4971 34.8942 35.4387 34.0768C35.775 33.7844 36.0866 33.4625 36.4304 33.1798C37.1929 32.5518 37.0625 31.5601 36.5897 30.9657C36.1134 30.3659 35.6336 29.7688 35.1491 29.1752C33.7895 27.5109 32.3819 25.885 31.0621 24.1878C30.6867 23.7053 30.7039 23.6154 31.2042 23.2771C31.7615 22.9016 32.3723 22.7095 33.0092 22.7568ZM49.4106 56.3454C49.2747 57.6356 50.4977 58.7845 51.9019 58.7845C53.1784 58.7845 54.2724 57.6521 54.2676 56.3385C54.2621 54.9734 53.1647 53.898 51.7962 53.8754C50.5292 53.8548 49.2568 55.0737 49.4106 56.3454Z" fill="black"/>
<path d="M33.0092 22.7568C34.0524 22.7308 34.8787 23.0979 35.6158 23.7822C37.9039 25.909 40.0939 28.1286 42.1776 30.4565C43.1768 31.5731 43.2976 33.8373 42.0897 35.1248C41.7438 35.494 41.3732 35.8289 40.9875 36.1522C40.6341 36.4493 40.6217 36.4967 40.9203 36.8337C42.5214 38.638 44.1301 40.4361 45.7313 42.2397C48.3729 45.2149 51.0158 48.1886 53.6471 51.172C54.8495 52.535 56.0369 53.9117 57.2118 55.2988C57.9379 56.1553 57.9894 57.1724 57.7842 58.219C57.7245 58.5244 57.5371 58.7756 57.2928 58.9856C56.0355 60.0665 54.7274 61.085 53.4241 62.1097C52.7796 62.6162 52.0892 62.6635 51.3542 62.4665C50.6047 62.2655 49.9761 61.8434 49.497 61.2353C48.1457 59.5195 46.8753 57.7427 45.5858 55.9803C42.8714 52.2715 40.1674 48.5551 37.4613 44.8401C36.6404 43.7132 35.821 42.5842 35.0146 41.4463C34.8581 41.226 34.7538 41.1958 34.5362 41.3702C34.0984 41.7188 33.6481 42.053 33.1657 42.3406C31.7752 43.1703 29.5495 42.7647 28.5667 41.4683C27.4131 39.9461 26.3706 38.3449 25.3068 36.7589C24.6191 35.7335 23.9307 34.7096 23.3028 33.6451C22.3852 32.0885 22.6817 30.2019 24.0453 29.0132C24.37 28.7304 24.4276 28.7298 24.6973 29.0688C26.2758 31.0563 27.8502 33.0473 29.4301 35.0335C29.7362 35.4178 30.0546 35.7932 30.382 36.1597C30.916 36.7568 31.8638 36.8817 32.526 36.4185C33.5486 35.704 34.4971 34.8942 35.4387 34.0768C35.775 33.7844 36.0866 33.4625 36.4304 33.1798C37.1929 32.5518 37.0625 31.5601 36.5897 30.9657C36.1134 30.3659 35.6336 29.7688 35.1491 29.1752C33.7895 27.5109 32.3819 25.885 31.0621 24.1878C30.6867 23.7053 30.7039 23.6154 31.2042 23.2771C31.7615 22.9016 32.3723 22.7095 33.0092 22.7568ZM49.4106 56.3454C49.2747 57.6356 50.4977 58.7845 51.9019 58.7845C53.1784 58.7845 54.2724 57.6521 54.2676 56.3385C54.2621 54.9734 53.1647 53.898 51.7962 53.8754C50.5292 53.8548 49.2568 55.0737 49.4106 56.3454Z" fill="white"/>
<path d="M33.0092 22.7568C34.0524 22.7308 34.8787 23.0979 35.6158 23.7822C37.9039 25.909 40.0939 28.1286 42.1776 30.4565C43.1768 31.5731 43.2976 33.8373 42.0897 35.1248C41.7438 35.494 41.3732 35.8289 40.9875 36.1522C40.6341 36.4493 40.6217 36.4967 40.9203 36.8337C42.5214 38.638 44.1301 40.4361 45.7313 42.2397C48.3729 45.2149 51.0158 48.1886 53.6471 51.172C54.8495 52.535 56.0369 53.9117 57.2118 55.2988C57.9379 56.1553 57.9894 57.1724 57.7842 58.219C57.7245 58.5244 57.5371 58.7756 57.2928 58.9856C56.0355 60.0665 54.7274 61.085 53.4241 62.1097C52.7796 62.6162 52.0892 62.6635 51.3542 62.4665C50.6047 62.2655 49.9761 61.8434 49.497 61.2353C48.1457 59.5195 46.8753 57.7427 45.5858 55.9803C42.8714 52.2715 40.1674 48.5551 37.4613 44.8401C36.6404 43.7132 35.821 42.5842 35.0146 41.4463C34.8581 41.226 34.7538 41.1958 34.5362 41.3702C34.0984 41.7188 33.6481 42.053 33.1657 42.3406C31.7752 43.1703 29.5495 42.7647 28.5667 41.4683C27.4131 39.9461 26.3706 38.3449 25.3068 36.7589C24.6191 35.7335 23.9307 34.7096 23.3028 33.6451C22.3852 32.0885 22.6817 30.2019 24.0453 29.0132C24.37 28.7304 24.4276 28.7298 24.6973 29.0688C26.2758 31.0563 27.8502 33.0473 29.4301 35.0335C29.7362 35.4178 30.0546 35.7932 30.382 36.1597C30.916 36.7568 31.8638 36.8817 32.526 36.4185C33.5486 35.704 34.4971 34.8942 35.4387 34.0768C35.775 33.7844 36.0866 33.4625 36.4304 33.1798C37.1929 32.5518 37.0625 31.5601 36.5897 30.9657C36.1134 30.3659 35.6336 29.7688 35.1491 29.1752C33.7895 27.5109 32.3819 25.885 31.0621 24.1878C30.6867 23.7053 30.7039 23.6154 31.2042 23.2771C31.7615 22.9016 32.3723 22.7095 33.0092 22.7568ZM49.4106 56.3454C49.2747 57.6356 50.4977 58.7845 51.9019 58.7845C53.1784 58.7845 54.2724 57.6521 54.2676 56.3385C54.2621 54.9734 53.1647 53.898 51.7962 53.8754C50.5292 53.8548 49.2568 55.0737 49.4106 56.3454Z" stroke="#02A653"/>
</svg>
