<svg width="52" height="70" viewBox="0 0 52 70" fill="none" xmlns="http://www.w3.org/2000/svg">
<path d="M21.5847 69.682C21.0661 69.5103 20.8122 69.1455 20.7228 68.6054C20.5618 67.6147 20.3472 66.6311 20.1791 65.6404C20.1326 65.3722 19.9788 65.3078 19.7535 65.2684C18.7449 65.086 17.7399 64.8929 16.7348 64.7141C16.2878 64.6354 15.9659 64.4029 15.8192 63.9666C15.669 63.5159 15.8085 63.1296 16.1304 62.8006C16.6275 62.2927 17.1354 61.792 17.6361 61.2912C18.8772 60.0502 20.1183 58.8091 21.3594 57.568C21.4274 57.5 21.4917 57.3713 21.599 57.407C21.6956 57.4428 21.6849 57.5787 21.6992 57.6753C21.7814 58.2046 21.853 58.734 21.9352 59.2633C22.1963 60.998 23.9203 62.2247 25.6478 61.9207C26.6743 61.7419 27.7043 61.5845 28.7308 61.4164C28.949 61.3807 29.1242 61.4772 29.278 61.6239C29.8288 62.1425 29.8288 62.1425 29.3031 62.6682C27.1142 64.8571 24.9253 67.0424 22.74 69.2349C22.5468 69.428 22.3394 69.589 22.0819 69.6784C21.9174 69.682 21.7528 69.682 21.5847 69.682Z" fill="black"/>
<path d="M21.5847 69.682C21.0661 69.5103 20.8122 69.1455 20.7228 68.6054C20.5618 67.6147 20.3472 66.6311 20.1791 65.6404C20.1326 65.3722 19.9788 65.3078 19.7535 65.2684C18.7449 65.086 17.7399 64.8929 16.7348 64.7141C16.2878 64.6354 15.9659 64.4029 15.8192 63.9666C15.669 63.5159 15.8085 63.1296 16.1304 62.8006C16.6275 62.2927 17.1354 61.792 17.6361 61.2912C18.8772 60.0502 20.1183 58.8091 21.3594 57.568C21.4274 57.5 21.4917 57.3713 21.599 57.407C21.6956 57.4428 21.6849 57.5787 21.6992 57.6753C21.7814 58.2046 21.853 58.734 21.9352 59.2633C22.1963 60.998 23.9203 62.2247 25.6478 61.9207C26.6743 61.7419 27.7043 61.5845 28.7308 61.4164C28.949 61.3807 29.1242 61.4772 29.278 61.6239C29.8288 62.1425 29.8288 62.1425 29.3031 62.6682C27.1142 64.8571 24.9253 67.0424 22.74 69.2349C22.5468 69.428 22.3394 69.589 22.0819 69.6784C21.9174 69.682 21.7528 69.682 21.5847 69.682Z" fill="white"/>
<path d="M45.3798 69.6816C45.1223 69.5922 44.9113 69.4384 44.7181 69.2417C42.4541 66.9705 40.1866 64.7065 37.9226 62.4425C37.6579 62.1779 37.6793 62.1922 37.8939 61.906C38.2194 61.4733 38.6128 61.3731 39.1315 61.4804C40.0435 61.6628 40.9627 61.8238 41.8854 61.9418C43.7596 62.1779 45.2618 60.9046 45.5264 59.1878C45.6087 58.6585 45.6802 58.1291 45.7553 57.5998C45.7661 57.5247 45.7697 57.4353 45.8448 57.4102C45.9234 57.3852 45.9735 57.471 46.0236 57.5211C47.8155 59.3094 49.6038 61.1013 51.3921 62.8896C51.5852 63.0828 51.6532 63.3295 51.7033 63.5835C51.7033 63.6192 51.7033 63.6586 51.7033 63.6944C51.6031 64.3739 51.1668 64.6636 50.523 64.7673C49.543 64.9247 48.5701 65.1357 47.5901 65.3038C47.397 65.336 47.3219 65.4254 47.2897 65.5971C47.1037 66.6021 46.9034 67.6036 46.7389 68.6086C46.6531 69.1451 46.3956 69.5099 45.8805 69.6852C45.7124 69.6816 45.5443 69.6816 45.3798 69.6816Z" fill="black"/>
<path d="M45.3798 69.6816C45.1223 69.5922 44.9113 69.4384 44.7181 69.2417C42.4541 66.9705 40.1866 64.7065 37.9226 62.4425C37.6579 62.1779 37.6793 62.1922 37.8939 61.906C38.2194 61.4733 38.6128 61.3731 39.1315 61.4804C40.0435 61.6628 40.9627 61.8238 41.8854 61.9418C43.7596 62.1779 45.2618 60.9046 45.5264 59.1878C45.6087 58.6585 45.6802 58.1291 45.7553 57.5998C45.7661 57.5247 45.7697 57.4353 45.8448 57.4102C45.9234 57.3852 45.9735 57.471 46.0236 57.5211C47.8155 59.3094 49.6038 61.1013 51.3921 62.8896C51.5852 63.0828 51.6532 63.3295 51.7033 63.5835C51.7033 63.6192 51.7033 63.6586 51.7033 63.6944C51.6031 64.3739 51.1668 64.6636 50.523 64.7673C49.543 64.9247 48.5701 65.1357 47.5901 65.3038C47.397 65.336 47.3219 65.4254 47.2897 65.5971C47.1037 66.6021 46.9034 67.6036 46.7389 68.6086C46.6531 69.1451 46.3956 69.5099 45.8805 69.6852C45.7124 69.6816 45.5443 69.6816 45.3798 69.6816Z" fill="white"/>
<path d="M46.8853 34.3412C46.6206 32.9893 45.9554 31.9413 44.8323 31.2009C44.4747 30.9649 44.0955 30.7682 43.6807 30.668C43.4196 30.6036 43.3588 30.4713 43.3588 30.221C43.3695 28.1429 43.3623 26.0613 43.3623 23.9833C43.3623 18.039 43.3623 12.0982 43.3623 6.1539C43.3623 5.17749 42.8294 4.64815 41.853 4.64815C29.9679 4.64815 18.0792 4.64815 6.19414 4.64815C5.207 4.64815 4.68481 5.17033 4.68481 6.15033C4.68481 21.9196 4.68481 37.6889 4.68123 53.4582C4.68123 54.0376 4.88152 54.4811 5.38225 54.7744C5.58612 54.896 5.81502 54.9175 6.05108 54.9175C9.52755 54.9139 13.0004 54.9175 16.4769 54.9139C16.7094 54.9139 16.899 54.964 17.0849 55.1178C17.5821 55.5255 18.1865 55.7544 18.7516 56.0477C19.0557 56.2051 19.0628 56.2122 18.8124 56.4626C18.1543 57.1243 17.4927 57.7824 16.8346 58.444C16.7237 58.5585 16.6021 58.6086 16.4411 58.6086C12.8824 58.605 9.32368 58.6515 5.76495 58.5907C3.39365 58.5478 1.53023 56.7845 1.10462 54.567C1.03308 54.195 1.00089 53.8159 1.00089 53.4403C1.00089 37.6818 0.997318 21.9196 1.00447 6.16106C1.00447 3.99363 1.98446 2.3913 3.9516 1.43992C4.56678 1.13591 5.22488 1 5.91159 1C17.9827 1 30.0538 1 42.1248 1C44.5069 1 46.5956 2.80261 46.9568 5.15603C46.9926 5.38493 47.0069 5.61383 47.0069 5.84631C47.0069 11.762 47.0033 17.6778 47.0033 23.5935C47.0033 25.6465 47.0105 27.6959 46.9926 29.7488C46.9819 31.1974 46.939 32.6495 46.9497 34.098C46.9497 34.1695 46.9676 34.2482 46.8853 34.3412Z" fill="black"/>
<path d="M46.8853 34.3412C46.6206 32.9893 45.9554 31.9413 44.8323 31.2009C44.4747 30.9649 44.0955 30.7682 43.6807 30.668C43.4196 30.6036 43.3588 30.4713 43.3588 30.221C43.3695 28.1429 43.3623 26.0613 43.3623 23.9833C43.3623 18.039 43.3623 12.0982 43.3623 6.1539C43.3623 5.17749 42.8294 4.64815 41.853 4.64815C29.9679 4.64815 18.0792 4.64815 6.19414 4.64815C5.207 4.64815 4.68481 5.17033 4.68481 6.15033C4.68481 21.9196 4.68481 37.6889 4.68123 53.4582C4.68123 54.0376 4.88152 54.4811 5.38225 54.7744C5.58612 54.896 5.81502 54.9175 6.05108 54.9175C9.52755 54.9139 13.0004 54.9175 16.4769 54.9139C16.7094 54.9139 16.899 54.964 17.0849 55.1178C17.5821 55.5255 18.1865 55.7544 18.7516 56.0477C19.0557 56.2051 19.0628 56.2122 18.8124 56.4626C18.1543 57.1243 17.4927 57.7824 16.8346 58.444C16.7237 58.5585 16.6021 58.6086 16.4411 58.6086C12.8824 58.605 9.32368 58.6515 5.76495 58.5907C3.39365 58.5478 1.53023 56.7845 1.10462 54.567C1.03308 54.195 1.00089 53.8159 1.00089 53.4403C1.00089 37.6818 0.997318 21.9196 1.00447 6.16106C1.00447 3.99363 1.98446 2.3913 3.9516 1.43992C4.56678 1.13591 5.22488 1 5.91159 1C17.9827 1 30.0538 1 42.1248 1C44.5069 1 46.5956 2.80261 46.9568 5.15603C46.9926 5.38493 47.0069 5.61383 47.0069 5.84631C47.0069 11.762 47.0033 17.6778 47.0033 23.5935C47.0033 25.6465 47.0105 27.6959 46.9926 29.7488C46.9819 31.1974 46.939 32.6495 46.9497 34.098C46.9497 34.1695 46.9676 34.2482 46.8853 34.3412Z" fill="white"/>
<path d="M46.8853 34.3412C46.6206 32.9893 45.9554 31.9413 44.8323 31.2009C44.4747 30.9649 44.0955 30.7682 43.6807 30.668C43.4196 30.6036 43.3588 30.4713 43.3588 30.221C43.3695 28.1429 43.3623 26.0613 43.3623 23.9833C43.3623 18.039 43.3623 12.0982 43.3623 6.1539C43.3623 5.17749 42.8294 4.64815 41.853 4.64815C29.9679 4.64815 18.0792 4.64815 6.19414 4.64815C5.207 4.64815 4.68481 5.17033 4.68481 6.15033C4.68481 21.9196 4.68481 37.6889 4.68123 53.4582C4.68123 54.0376 4.88152 54.4811 5.38225 54.7744C5.58612 54.896 5.81502 54.9175 6.05108 54.9175C9.52755 54.9139 13.0004 54.9175 16.4769 54.9139C16.7094 54.9139 16.899 54.964 17.0849 55.1178C17.5821 55.5255 18.1865 55.7544 18.7516 56.0477C19.0557 56.2051 19.0628 56.2122 18.8124 56.4626C18.1543 57.1243 17.4927 57.7824 16.8346 58.444C16.7237 58.5585 16.6021 58.6086 16.4411 58.6086C12.8824 58.605 9.32368 58.6515 5.76495 58.5907C3.39365 58.5478 1.53023 56.7845 1.10462 54.567C1.03308 54.195 1.00089 53.8159 1.00089 53.4403C1.00089 37.6818 0.997318 21.9196 1.00447 6.16106C1.00447 3.99363 1.98446 2.3913 3.9516 1.43992C4.56678 1.13591 5.22488 1 5.91159 1C17.9827 1 30.0538 1 42.1248 1C44.5069 1 46.5956 2.80261 46.9568 5.15603C46.9926 5.38493 47.0069 5.61383 47.0069 5.84631C47.0069 11.762 47.0033 17.6778 47.0033 23.5935C47.0033 25.6465 47.0105 27.6959 46.9926 29.7488C46.9819 31.1974 46.939 32.6495 46.9497 34.098C46.9497 34.1695 46.9676 34.2482 46.8853 34.3412Z" stroke="white" stroke-width="2"/>
<path d="M28.6123 60.2074C28.0901 60.2932 27.3963 60.4041 26.706 60.5186C26.2232 60.5973 25.7439 60.7081 25.2575 60.7439C24.2703 60.819 23.2796 60.1287 23.1222 58.9234C22.9935 57.9541 22.8361 56.9885 22.6895 56.0228C22.5857 55.3504 22.2209 54.8711 21.6165 54.5707C20.7402 54.1307 19.8639 53.698 18.9877 53.258C17.8646 52.6929 17.4926 51.5448 18.0685 50.4254C18.512 49.5634 18.9555 48.7014 19.4097 47.8431C19.728 47.235 19.7531 46.6342 19.4312 46.019C18.9877 45.1677 18.5477 44.3129 18.1078 43.4581C17.4783 42.2385 17.836 41.1262 19.0592 40.5146C19.8782 40.1033 20.6901 39.6884 21.5163 39.2949C22.2424 38.948 22.6251 38.3829 22.7288 37.5996C22.854 36.6661 22.997 35.7362 23.133 34.8063C23.2868 33.7333 24.2775 32.832 25.6974 33.1253C26.6273 33.3184 27.568 33.4579 28.505 33.601C29.1274 33.694 29.6746 33.5116 30.1217 33.0573C30.8298 32.342 31.5559 31.641 32.2426 30.9042C33.0008 30.0923 34.4065 30.0601 35.1933 30.897C35.8621 31.6124 36.5632 32.2991 37.2499 32.9965C37.7542 33.508 38.3479 33.7047 39.0668 33.5724C40.0539 33.3899 41.0482 33.2326 42.0425 33.0752C43.1942 32.8892 44.1742 33.7154 44.3423 34.978C44.4711 35.9293 44.6248 36.8736 44.7715 37.8214C44.8752 38.4723 45.2436 38.9301 45.8266 39.2234C46.7029 39.6633 47.5791 40.0997 48.4554 40.5396C49.5785 41.1047 49.9576 42.2456 49.3853 43.3651C48.9347 44.245 48.4804 45.1212 48.0191 45.9975C47.6972 46.6127 47.715 47.2136 48.0369 47.8252C48.4947 48.7014 48.949 49.5777 49.396 50.4611C49.9504 51.5556 49.5713 52.6929 48.4769 53.2437C47.6364 53.6694 46.7959 54.1021 45.9446 54.5063C45.2078 54.8568 44.8251 55.4183 44.7214 56.2231C44.6034 57.1566 44.4639 58.0865 44.2994 59.0128C44.0776 60.2539 43.0905 60.912 41.8458 60.6974C40.8909 60.5329 39.9359 60.3719 38.9809 60.2253C38.33 60.1251 37.7577 60.3004 37.2892 60.7832C36.6132 61.4807 35.9229 62.1638 35.2505 62.8613C34.3707 63.7733 33.1296 63.7912 32.2283 62.8863C31.5237 62.1781 30.8298 61.4628 30.1288 60.7511C29.7533 60.3719 29.3098 60.2003 28.6123 60.2074ZM21.9348 46.6306C21.9634 53.0828 27.1245 58.3154 33.5731 58.3941C40.0682 58.4728 45.4904 53.3296 45.5047 46.6234C45.5154 40.0711 40.2757 34.8421 33.734 34.8313C27.1102 34.817 21.9455 40.1962 21.9348 46.6306Z" fill="black"/>
<path d="M28.6123 60.2074C28.0901 60.2932 27.3963 60.4041 26.706 60.5186C26.2232 60.5973 25.7439 60.7081 25.2575 60.7439C24.2703 60.819 23.2796 60.1287 23.1222 58.9234C22.9935 57.9541 22.8361 56.9885 22.6895 56.0228C22.5857 55.3504 22.2209 54.8711 21.6165 54.5707C20.7402 54.1307 19.8639 53.698 18.9877 53.258C17.8646 52.6929 17.4926 51.5448 18.0685 50.4254C18.512 49.5634 18.9555 48.7014 19.4097 47.8431C19.728 47.235 19.7531 46.6342 19.4312 46.019C18.9877 45.1677 18.5477 44.3129 18.1078 43.4581C17.4783 42.2385 17.836 41.1262 19.0592 40.5146C19.8782 40.1033 20.6901 39.6884 21.5163 39.2949C22.2424 38.948 22.6251 38.3829 22.7288 37.5996C22.854 36.6661 22.997 35.7362 23.133 34.8063C23.2868 33.7333 24.2775 32.832 25.6974 33.1253C26.6273 33.3184 27.568 33.4579 28.505 33.601C29.1274 33.694 29.6746 33.5116 30.1217 33.0573C30.8298 32.342 31.5559 31.641 32.2426 30.9042C33.0008 30.0923 34.4065 30.0601 35.1933 30.897C35.8621 31.6124 36.5632 32.2991 37.2499 32.9965C37.7542 33.508 38.3479 33.7047 39.0668 33.5724C40.0539 33.3899 41.0482 33.2326 42.0425 33.0752C43.1942 32.8892 44.1742 33.7154 44.3423 34.978C44.4711 35.9293 44.6248 36.8736 44.7715 37.8214C44.8752 38.4723 45.2436 38.9301 45.8266 39.2234C46.7029 39.6633 47.5791 40.0997 48.4554 40.5396C49.5785 41.1047 49.9576 42.2456 49.3853 43.3651C48.9347 44.245 48.4804 45.1212 48.0191 45.9975C47.6972 46.6127 47.715 47.2136 48.0369 47.8252C48.4947 48.7014 48.949 49.5777 49.396 50.4611C49.9504 51.5556 49.5713 52.6929 48.4769 53.2437C47.6364 53.6694 46.7959 54.1021 45.9446 54.5063C45.2078 54.8568 44.8251 55.4183 44.7214 56.2231C44.6034 57.1566 44.4639 58.0865 44.2994 59.0128C44.0776 60.2539 43.0905 60.912 41.8458 60.6974C40.8909 60.5329 39.9359 60.3719 38.9809 60.2253C38.33 60.1251 37.7577 60.3004 37.2892 60.7832C36.6132 61.4807 35.9229 62.1638 35.2505 62.8613C34.3707 63.7733 33.1296 63.7912 32.2283 62.8863C31.5237 62.1781 30.8298 61.4628 30.1288 60.7511C29.7533 60.3719 29.3098 60.2003 28.6123 60.2074ZM21.9348 46.6306C21.9634 53.0828 27.1245 58.3154 33.5731 58.3941C40.0682 58.4728 45.4904 53.3296 45.5047 46.6234C45.5154 40.0711 40.2757 34.8421 33.734 34.8313C27.1102 34.817 21.9455 40.1962 21.9348 46.6306Z" fill="white"/>
<path d="M23.97 15.9538C19.7103 15.9538 15.447 15.9538 11.1872 15.9538C10.2895 15.9538 9.56701 15.3816 9.42394 14.5733C9.2308 13.4717 9.97832 12.5453 11.0978 12.4952C11.1729 12.4917 11.2444 12.4952 11.3195 12.4952C19.7568 12.4952 28.1976 12.4952 36.6348 12.4952C37.1177 12.4952 37.5755 12.5775 37.951 12.9066C38.5412 13.4216 38.7236 14.1476 38.4553 14.863C38.205 15.5282 37.5683 15.9538 36.8065 15.9538C32.5289 15.9538 28.2477 15.9538 23.97 15.9538Z" fill="black"/>
<path d="M23.97 15.9538C19.7103 15.9538 15.447 15.9538 11.1872 15.9538C10.2895 15.9538 9.56701 15.3816 9.42394 14.5733C9.2308 13.4717 9.97832 12.5453 11.0978 12.4952C11.1729 12.4917 11.2444 12.4952 11.3195 12.4952C19.7568 12.4952 28.1976 12.4952 36.6348 12.4952C37.1177 12.4952 37.5755 12.5775 37.951 12.9066C38.5412 13.4216 38.7236 14.1476 38.4553 14.863C38.205 15.5282 37.5683 15.9538 36.8065 15.9538C32.5289 15.9538 28.2477 15.9538 23.97 15.9538Z" fill="white"/>
<path d="M23.97 15.9538C19.7103 15.9538 15.447 15.9538 11.1872 15.9538C10.2895 15.9538 9.56701 15.3816 9.42394 14.5733C9.2308 13.4717 9.97832 12.5453 11.0978 12.4952C11.1729 12.4917 11.2444 12.4952 11.3195 12.4952C19.7568 12.4952 28.1976 12.4952 36.6348 12.4952C37.1177 12.4952 37.5755 12.5775 37.951 12.9066C38.5412 13.4216 38.7236 14.1476 38.4553 14.863C38.205 15.5282 37.5683 15.9538 36.8065 15.9538C32.5289 15.9538 28.2477 15.9538 23.97 15.9538Z" stroke="white"/>
<path d="M23.9954 21.1328C28.273 21.1328 32.5542 21.1471 36.8318 21.1221C37.6867 21.1185 38.5808 21.8124 38.5772 22.8174C38.5737 23.7974 37.8369 24.5485 36.8354 24.5521C32.5292 24.5592 28.2229 24.5556 23.9167 24.5556C19.6855 24.5556 15.4508 24.5556 11.2197 24.5556C10.4042 24.5556 9.77474 24.1551 9.51007 23.4719C9.01292 22.1879 10.0752 21.1185 11.1017 21.1257C15.4008 21.1471 19.6963 21.1328 23.9954 21.1328Z" fill="black"/>
<path d="M23.9954 21.1328C28.273 21.1328 32.5542 21.1471 36.8318 21.1221C37.6867 21.1185 38.5808 21.8124 38.5772 22.8174C38.5737 23.7974 37.8369 24.5485 36.8354 24.5521C32.5292 24.5592 28.2229 24.5556 23.9167 24.5556C19.6855 24.5556 15.4508 24.5556 11.2197 24.5556C10.4042 24.5556 9.77474 24.1551 9.51007 23.4719C9.01292 22.1879 10.0752 21.1185 11.1017 21.1257C15.4008 21.1471 19.6963 21.1328 23.9954 21.1328Z" fill="white"/>
<path d="M23.9954 21.1328C28.273 21.1328 32.5542 21.1471 36.8318 21.1221C37.6867 21.1185 38.5808 21.8124 38.5772 22.8174C38.5737 23.7974 37.8369 24.5485 36.8354 24.5521C32.5292 24.5592 28.2229 24.5556 23.9167 24.5556C19.6855 24.5556 15.4508 24.5556 11.2197 24.5556C10.4042 24.5556 9.77474 24.1551 9.51007 23.4719C9.01292 22.1879 10.0752 21.1185 11.1017 21.1257C15.4008 21.1471 19.6963 21.1328 23.9954 21.1328Z" stroke="white"/>
<path d="M33.723 56.7203C28.4511 56.8026 23.5726 52.4892 23.5762 46.5734C23.5798 40.8938 28.2079 36.3837 33.8411 36.4445C39.3061 36.5053 43.8842 40.8723 43.8735 46.6056C43.8627 52.5213 39.0021 56.8026 33.723 56.7203Z" fill="black"/>
<path d="M33.723 56.7203C28.4511 56.8026 23.5726 52.4892 23.5762 46.5734C23.5798 40.8938 28.2079 36.3837 33.8411 36.4445C39.3061 36.5053 43.8842 40.8723 43.8735 46.6056C43.8627 52.5213 39.0021 56.8026 33.723 56.7203Z" fill="white"/>
</svg>
