<svg width="73" height="85" viewBox="0 0 73 85" fill="none" xmlns="http://www.w3.org/2000/svg">
<path d="M31.8742 84.3028C30.9644 83.9239 30.4944 83.2472 30.5126 82.2553C30.5153 82.0877 30.4452 82.0103 30.3168 81.9365C29.5135 81.4766 29.1965 80.768 29.3131 79.8699C29.3513 79.5776 29.2766 79.491 28.9916 79.5011C28.5371 79.5175 28.0817 79.5111 27.6263 79.5029C26.5206 79.4847 25.6435 78.6012 25.6608 77.5292C25.6781 76.4453 26.5197 75.6201 27.6245 75.6192C33.4964 75.6165 39.3683 75.6165 45.2402 75.6192C46.3204 75.6201 47.1793 76.4854 47.1793 77.5538C47.1793 78.5976 46.3314 79.4728 45.2812 79.5011C44.8413 79.5129 44.4005 79.5147 43.9615 79.5002C43.7055 79.491 43.6217 79.5612 43.6472 79.8353C43.7574 81.013 43.3849 81.6214 42.312 82.0695C42.1508 82.1369 42.0105 82.2016 42.016 82.4156C42.0415 83.3619 41.5205 83.933 40.709 84.301C37.7644 84.3028 34.8189 84.3028 31.8742 84.3028Z" fill="black"/>
<path d="M31.8742 84.3028C30.9644 83.9239 30.4944 83.2472 30.5126 82.2553C30.5153 82.0877 30.4452 82.0103 30.3168 81.9365C29.5135 81.4766 29.1965 80.768 29.3131 79.8699C29.3513 79.5776 29.2766 79.491 28.9916 79.5011C28.5371 79.5175 28.0817 79.5111 27.6263 79.5029C26.5206 79.4847 25.6435 78.6012 25.6608 77.5292C25.6781 76.4453 26.5197 75.6201 27.6245 75.6192C33.4964 75.6165 39.3683 75.6165 45.2402 75.6192C46.3204 75.6201 47.1793 76.4854 47.1793 77.5538C47.1793 78.5976 46.3314 79.4728 45.2812 79.5011C44.8413 79.5129 44.4005 79.5147 43.9615 79.5002C43.7055 79.491 43.6217 79.5612 43.6472 79.8353C43.7574 81.013 43.3849 81.6214 42.312 82.0695C42.1508 82.1369 42.0105 82.2016 42.016 82.4156C42.0415 83.3619 41.5205 83.933 40.709 84.301C37.7644 84.3028 34.8189 84.3028 31.8742 84.3028Z" fill="#02A653"/>
<path d="M71.8561 37.0491L71.7799 37.2327C71.5161 37.8691 71.1786 38.4636 70.5934 38.8567C70.0068 39.2507 69.33 39.3362 68.6442 39.3362L62.3668 39.3352C61.5484 39.3346 60.7863 39.064 60.2213 38.5247C59.6529 37.982 59.3538 37.2324 59.3512 36.4153C59.3487 35.5925 59.629 34.8289 60.2018 34.2717C60.7714 33.7178 61.5427 33.4524 62.3688 33.4504H62.3698C64.4632 33.4468 66.5567 33.4486 68.6481 33.4495L68.9049 33.4543C69.5039 33.4767 70.0872 33.5877 70.6002 33.9338C71.1855 34.3288 71.5219 34.9242 71.7819 35.5618L71.8561 35.7424V37.0491Z" fill="black"/>
<path d="M71.8561 37.0491L71.7799 37.2327C71.5161 37.8691 71.1786 38.4636 70.5934 38.8567C70.0068 39.2507 69.33 39.3362 68.6442 39.3362L62.3668 39.3352C61.5484 39.3346 60.7863 39.064 60.2213 38.5247C59.6529 37.982 59.3538 37.2324 59.3512 36.4153C59.3487 35.5925 59.629 34.8289 60.2018 34.2717C60.7714 33.7178 61.5427 33.4524 62.3688 33.4504H62.3698C64.4632 33.4468 66.5567 33.4486 68.6481 33.4495L68.9049 33.4543C69.5039 33.4767 70.0872 33.5877 70.6002 33.9338C71.1855 34.3288 71.5219 34.9242 71.7819 35.5618L71.8561 35.7424V37.0491Z" fill="#02A653"/>
<path d="M71.8561 37.0491L71.7799 37.2327C71.5161 37.8691 71.1786 38.4636 70.5934 38.8567C70.0068 39.2507 69.33 39.3362 68.6442 39.3362L62.3668 39.3352C61.5484 39.3346 60.7863 39.064 60.2213 38.5247C59.6529 37.982 59.3538 37.2324 59.3512 36.4153C59.3487 35.5925 59.629 34.8289 60.2018 34.2717C60.7714 33.7178 61.5427 33.4524 62.3688 33.4504H62.3698C64.4632 33.4468 66.5567 33.4486 68.6481 33.4495L68.9049 33.4543C69.5039 33.4767 70.0872 33.5877 70.6002 33.9338C71.1855 34.3288 71.5219 34.9242 71.7819 35.5618L71.8561 35.7424V37.0491Z" stroke="#02A653" stroke-width="2"/>
<path d="M4.38184 33.4355C6.39795 33.4862 8.39533 33.4474 10.4551 33.4502L10.7715 33.4658C12.2744 33.6052 13.4325 34.7174 13.4951 36.2617L13.498 36.4229C13.4839 38.1335 12.1354 39.3334 10.458 39.335C8.38431 39.3368 6.3692 39.299 4.33887 39.3496L4.33984 39.3506C3.68734 39.3671 3.03465 39.2684 2.44727 38.9482C1.84643 38.6207 1.40243 38.1093 1.0957 37.458L1 37.2559V35.5381L1.09082 35.3398C1.40254 34.6609 1.86281 34.1439 2.47949 33.8203C3.07699 33.5069 3.73691 33.4194 4.38184 33.4355Z" fill="black"/>
<path d="M4.38184 33.4355C6.39795 33.4862 8.39533 33.4474 10.4551 33.4502L10.7715 33.4658C12.2744 33.6052 13.4325 34.7174 13.4951 36.2617L13.498 36.4229C13.4839 38.1335 12.1354 39.3334 10.458 39.335C8.38431 39.3368 6.3692 39.299 4.33887 39.3496L4.33984 39.3506C3.68734 39.3671 3.03465 39.2684 2.44727 38.9482C1.84643 38.6207 1.40243 38.1093 1.0957 37.458L1 37.2559V35.5381L1.09082 35.3398C1.40254 34.6609 1.86281 34.1439 2.47949 33.8203C3.07699 33.5069 3.73691 33.4194 4.38184 33.4355Z" fill="#02A653"/>
<path d="M4.38184 33.4355C6.39795 33.4862 8.39533 33.4474 10.4551 33.4502L10.7715 33.4658C12.2744 33.6052 13.4325 34.7174 13.4951 36.2617L13.498 36.4229C13.4839 38.1335 12.1354 39.3334 10.458 39.335C8.38431 39.3368 6.3692 39.299 4.33887 39.3496L4.33984 39.3506C3.68734 39.3671 3.03465 39.2684 2.44727 38.9482C1.84643 38.6207 1.40243 38.1093 1.0957 37.458L1 37.2559V35.5381L1.09082 35.3398C1.40254 34.6609 1.86281 34.1439 2.47949 33.8203C3.07699 33.5069 3.73691 33.4194 4.38184 33.4355Z" stroke="#02A653" stroke-width="2"/>
<path d="M36.6559 70.6724C33.7422 70.6724 30.8277 70.6743 27.914 70.6715C26.8903 70.6706 26.087 70.0158 25.9403 69.0758C25.7846 68.0776 26.301 67.2041 27.2847 66.8753C27.5961 66.7715 27.6617 66.6057 27.6608 66.3097C27.6472 63.3514 26.9404 60.5462 25.7818 57.8448C24.4375 54.7089 22.5585 51.9173 20.3908 49.2896C17.9171 46.2913 16.4744 42.8047 16.0208 38.9511C14.947 29.8259 19.6722 21.6733 27.4103 17.817C29.7538 16.6493 32.2421 15.9699 34.8616 15.774C40.6388 15.3414 45.7538 16.9863 50.1302 20.7652C54.0121 24.1179 56.3528 28.3731 57.0423 33.4681C57.8748 39.6151 56.2599 45.079 52.2952 49.8571C49.3105 53.4529 47.0617 57.4404 45.9797 62.0262C45.6482 63.4307 45.4724 64.857 45.4706 66.3043C45.4697 66.6021 45.527 66.7515 45.865 66.8271C46.926 67.0666 47.5099 67.951 47.3805 69.0348C47.2667 69.9903 46.4497 70.6697 45.3995 70.6706C42.4841 70.6743 39.5695 70.6724 36.6559 70.6724ZM35.3297 20.9911C35.3288 19.7952 34.3169 18.9637 33.1393 19.1759C29.1573 19.8936 25.8848 21.8318 23.2963 24.9239C21.8636 26.6362 20.7296 28.5316 20.032 30.6629C19.6895 31.7076 20.2141 32.7231 21.2033 33.0419C22.1751 33.3552 23.1706 32.8424 23.5349 31.8342C24.218 29.9406 25.2472 28.2547 26.607 26.7747C28.5607 24.6471 30.9697 23.3428 33.806 22.8072C34.7614 22.626 35.3307 21.9219 35.3297 20.9911Z" fill="black"/>
<path d="M36.6559 70.6724C33.7422 70.6724 30.8277 70.6743 27.914 70.6715C26.8903 70.6706 26.087 70.0158 25.9403 69.0758C25.7846 68.0776 26.301 67.2041 27.2847 66.8753C27.5961 66.7715 27.6617 66.6057 27.6608 66.3097C27.6472 63.3514 26.9404 60.5462 25.7818 57.8448C24.4375 54.7089 22.5585 51.9173 20.3908 49.2896C17.9171 46.2913 16.4744 42.8047 16.0208 38.9511C14.947 29.8259 19.6722 21.6733 27.4103 17.817C29.7538 16.6493 32.2421 15.9699 34.8616 15.774C40.6388 15.3414 45.7538 16.9863 50.1302 20.7652C54.0121 24.1179 56.3528 28.3731 57.0423 33.4681C57.8748 39.6151 56.2599 45.079 52.2952 49.8571C49.3105 53.4529 47.0617 57.4404 45.9797 62.0262C45.6482 63.4307 45.4724 64.857 45.4706 66.3043C45.4697 66.6021 45.527 66.7515 45.865 66.8271C46.926 67.0666 47.5099 67.951 47.3805 69.0348C47.2667 69.9903 46.4497 70.6697 45.3995 70.6706C42.4841 70.6743 39.5695 70.6724 36.6559 70.6724ZM35.3297 20.9911C35.3288 19.7952 34.3169 18.9637 33.1393 19.1759C29.1573 19.8936 25.8848 21.8318 23.2963 24.9239C21.8636 26.6362 20.7296 28.5316 20.032 30.6629C19.6895 31.7076 20.2141 32.7231 21.2033 33.0419C22.1751 33.3552 23.1706 32.8424 23.5349 31.8342C24.218 29.9406 25.2472 28.2547 26.607 26.7747C28.5607 24.6471 30.9697 23.3428 33.806 22.8072C34.7614 22.626 35.3307 21.9219 35.3297 20.9911Z" fill="#02A653"/>
<path d="M36.593 71.2543C39.5058 71.2543 42.4185 71.2498 45.3303 71.2571C46.253 71.2598 47.0099 71.8545 47.2467 72.7207C47.4753 73.5577 47.1018 74.4667 46.3404 74.9148C45.9624 75.1371 45.5416 75.2017 45.1154 75.2026C39.412 75.2063 33.7076 75.2136 28.0042 75.2008C26.2837 75.1972 25.2864 73.6461 26.0842 72.2544C26.4804 71.5631 27.1071 71.2525 27.9004 71.2534C30.7976 71.2562 33.6958 71.2543 36.593 71.2543Z" fill="black"/>
<path d="M36.593 71.2543C39.5058 71.2543 42.4185 71.2498 45.3303 71.2571C46.253 71.2598 47.0099 71.8545 47.2467 72.7207C47.4753 73.5577 47.1018 74.4667 46.3404 74.9148C45.9624 75.1371 45.5416 75.2017 45.1154 75.2026C39.412 75.2063 33.7076 75.2136 28.0042 75.2008C26.2837 75.1972 25.2864 73.6461 26.0842 72.2544C26.4804 71.5631 27.1071 71.2525 27.9004 71.2534C30.7976 71.2562 33.6958 71.2543 36.593 71.2543Z" fill="#02A653"/>
<path d="M57.3413 11.2891C58.5145 10.1354 60.3497 10.1707 61.4897 11.2861C62.6207 12.3927 62.7015 14.2562 61.5425 15.4424L61.5435 15.4434C59.9591 17.0662 58.3453 18.66 56.7446 20.2471C56.2286 20.7617 55.5336 21.0575 54.8745 21.0371V21.0381C54.2476 21.0369 53.6465 20.9164 53.1265 20.6025C52.6603 20.3212 52.323 19.923 52.0952 19.4541L52.0044 19.249C51.5861 18.2108 51.6437 17.0057 52.5718 16.0605L54.9458 13.665C55.7407 12.8698 56.5395 12.0776 57.3413 11.2891Z" fill="black"/>
<path d="M57.3413 11.2891C58.5145 10.1354 60.3497 10.1707 61.4897 11.2861C62.6207 12.3927 62.7015 14.2562 61.5425 15.4424L61.5435 15.4434C59.9591 17.0662 58.3453 18.66 56.7446 20.2471C56.2286 20.7617 55.5336 21.0575 54.8745 21.0371V21.0381C54.2476 21.0369 53.6465 20.9164 53.1265 20.6025C52.6603 20.3212 52.323 19.923 52.0952 19.4541L52.0044 19.249C51.5861 18.2108 51.6437 17.0057 52.5718 16.0605L54.9458 13.665C55.7407 12.8698 56.5395 12.0776 57.3413 11.2891Z" fill="#02A653"/>
<path d="M57.3413 11.2891C58.5145 10.1354 60.3497 10.1707 61.4897 11.2861C62.6207 12.3927 62.7015 14.2562 61.5425 15.4424L61.5435 15.4434C59.9591 17.0662 58.3453 18.66 56.7446 20.2471C56.2286 20.7617 55.5336 21.0575 54.8745 21.0371V21.0381C54.2476 21.0369 53.6465 20.9164 53.1265 20.6025C52.6603 20.3212 52.323 19.923 52.0952 19.4541L52.0044 19.249C51.5861 18.2108 51.6437 17.0057 52.5718 16.0605L54.9458 13.665C55.7407 12.8698 56.5395 12.0776 57.3413 11.2891Z" stroke="#02A653" stroke-width="2"/>
<path d="M10.6719 11.5244C11.7985 10.3633 13.676 10.3185 14.8711 11.4863L16.0498 12.6484C17.2244 13.8133 18.3877 14.9875 19.5469 16.1582H19.5479C19.9907 16.6055 20.2953 17.14 20.4033 17.748C20.5107 18.3529 20.4094 18.953 20.1719 19.5137V19.5146C19.6838 20.6644 18.5728 21.2438 17.3408 21.2275C17.334 21.2277 17.3271 21.2274 17.3203 21.2275C17.3089 21.2273 17.2975 21.2288 17.2861 21.2285V21.2275C16.5435 21.2302 15.8676 20.866 15.374 20.375L15.373 20.374C13.8178 18.8252 12.253 17.2729 10.7061 15.7031C9.53269 14.512 9.52929 12.7025 10.6719 11.5244Z" fill="black"/>
<path d="M10.6719 11.5244C11.7985 10.3633 13.676 10.3185 14.8711 11.4863L16.0498 12.6484C17.2244 13.8133 18.3877 14.9875 19.5469 16.1582H19.5479C19.9907 16.6055 20.2953 17.14 20.4033 17.748C20.5107 18.3529 20.4094 18.953 20.1719 19.5137V19.5146C19.6838 20.6644 18.5728 21.2438 17.3408 21.2275C17.334 21.2277 17.3271 21.2274 17.3203 21.2275C17.3089 21.2273 17.2975 21.2288 17.2861 21.2285V21.2275C16.5435 21.2302 15.8676 20.866 15.374 20.375L15.373 20.374C13.8178 18.8252 12.253 17.2729 10.7061 15.7031C9.53269 14.512 9.52929 12.7025 10.6719 11.5244Z" fill="#02A653"/>
<path d="M10.6719 11.5244C11.7985 10.3633 13.676 10.3185 14.8711 11.4863L16.0498 12.6484C17.2244 13.8133 18.3877 14.9875 19.5469 16.1582H19.5479C19.9907 16.6055 20.2953 17.14 20.4033 17.748C20.5107 18.3529 20.4094 18.953 20.1719 19.5137V19.5146C19.6838 20.6644 18.5728 21.2438 17.3408 21.2275C17.334 21.2277 17.3271 21.2274 17.3203 21.2275C17.3089 21.2273 17.2975 21.2288 17.2861 21.2285V21.2275C16.5435 21.2302 15.8676 20.866 15.374 20.375L15.373 20.374C13.8178 18.8252 12.253 17.2729 10.7061 15.7031C9.53269 14.512 9.52929 12.7025 10.6719 11.5244Z" stroke="#02A653" stroke-width="2"/>
<path d="M15.5612 52.134C16.7769 51.0593 18.4429 51.1949 19.528 52.2375L19.7369 52.4583L19.7389 52.4602C20.1703 52.9629 20.4415 53.5935 20.4244 54.303H20.4264C20.4492 55.1593 20.1457 55.8885 19.5748 56.4622V56.4631C18.014 58.0303 16.45 59.6023 14.8717 61.1614C13.7977 62.2225 12.1491 62.3031 10.9957 61.4221L10.7721 61.2327C9.62758 60.1647 9.43971 58.3756 10.5651 57.1311C11.4396 56.1631 12.3948 55.2475 13.2721 54.3684L14.3805 53.2522C14.7615 52.8734 15.1548 52.4945 15.5612 52.135V52.134Z" fill="black"/>
<path d="M15.5612 52.134C16.7769 51.0593 18.4429 51.1949 19.528 52.2375L19.7369 52.4583L19.7389 52.4602C20.1703 52.9629 20.4415 53.5935 20.4244 54.303H20.4264C20.4492 55.1593 20.1457 55.8885 19.5748 56.4622V56.4631C18.014 58.0303 16.45 59.6023 14.8717 61.1614C13.7977 62.2225 12.1491 62.3031 10.9957 61.4221L10.7721 61.2327C9.62758 60.1647 9.43971 58.3756 10.5651 57.1311C11.4396 56.1631 12.3948 55.2475 13.2721 54.3684L14.3805 53.2522C14.7615 52.8734 15.1548 52.4945 15.5612 52.135V52.134Z" fill="#02A653"/>
<path d="M15.5612 52.134C16.7769 51.0593 18.4429 51.1949 19.528 52.2375L19.7369 52.4583L19.7389 52.4602C20.1703 52.9629 20.4415 53.5935 20.4244 54.303H20.4264C20.4492 55.1593 20.1457 55.8885 19.5748 56.4622V56.4631C18.014 58.0303 16.45 59.6023 14.8717 61.1614C13.7977 62.2225 12.1491 62.3031 10.9957 61.4221L10.7721 61.2327C9.62758 60.1647 9.43971 58.3756 10.5651 57.1311C11.4396 56.1631 12.3948 55.2475 13.2721 54.3684L14.3805 53.2522C14.7615 52.8734 15.1548 52.4945 15.5612 52.135V52.134Z" stroke="#02A653" stroke-width="2"/>
<path d="M54.2736 51.6382C55.1847 51.4807 56.0114 51.7606 56.6456 52.3218L56.7697 52.437L56.7706 52.438C58.3705 54.015 59.9638 55.603 61.5402 57.2095H61.5411C61.9703 57.6472 62.2525 58.1735 62.3478 58.7603C62.4423 59.3424 62.3423 59.9193 62.1124 60.4517V60.4526C61.8737 61.0039 61.505 61.4546 61.0099 61.7622C60.5311 62.0597 59.9905 62.187 59.4435 62.1997L59.4445 62.2007C59.435 62.2012 59.4255 62.2003 59.4161 62.2007C59.4135 62.2007 59.4109 62.2016 59.4083 62.2017L59.4073 62.2007C58.6118 62.2308 57.9686 61.9274 57.4698 61.5034L57.2618 61.312C55.7227 59.782 54.1906 58.2463 52.6603 56.7114C51.7754 55.8238 51.593 54.7047 51.9249 53.6167C52.2902 52.4163 53.2359 51.8188 54.2736 51.6392V51.6382Z" fill="black"/>
<path d="M54.2736 51.6382C55.1847 51.4807 56.0114 51.7606 56.6456 52.3218L56.7697 52.437L56.7706 52.438C58.3705 54.015 59.9638 55.603 61.5402 57.2095H61.5411C61.9703 57.6472 62.2525 58.1735 62.3478 58.7603C62.4423 59.3424 62.3423 59.9193 62.1124 60.4517V60.4526C61.8737 61.0039 61.505 61.4546 61.0099 61.7622C60.5311 62.0597 59.9905 62.187 59.4435 62.1997L59.4445 62.2007C59.435 62.2012 59.4255 62.2003 59.4161 62.2007C59.4135 62.2007 59.4109 62.2016 59.4083 62.2017L59.4073 62.2007C58.6118 62.2308 57.9686 61.9274 57.4698 61.5034L57.2618 61.312C55.7227 59.782 54.1906 58.2463 52.6603 56.7114C51.7754 55.8238 51.593 54.7047 51.9249 53.6167C52.2902 52.4163 53.2359 51.8188 54.2736 51.6392V51.6382Z" fill="#02A653"/>
<path d="M54.2736 51.6382C55.1847 51.4807 56.0114 51.7606 56.6456 52.3218L56.7697 52.437L56.7706 52.438C58.3705 54.015 59.9638 55.603 61.5402 57.2095H61.5411C61.9703 57.6472 62.2525 58.1735 62.3478 58.7603C62.4423 59.3424 62.3423 59.9193 62.1124 60.4517V60.4526C61.8737 61.0039 61.505 61.4546 61.0099 61.7622C60.5311 62.0597 59.9905 62.187 59.4435 62.1997L59.4445 62.2007C59.435 62.2012 59.4255 62.2003 59.4161 62.2007C59.4135 62.2007 59.4109 62.2016 59.4083 62.2017L59.4073 62.2007C58.6118 62.2308 57.9686 61.9274 57.4698 61.5034L57.2618 61.312C55.7227 59.782 54.1906 58.2463 52.6603 56.7114C51.7754 55.8238 51.593 54.7047 51.9249 53.6167C52.2902 52.4163 53.2359 51.8188 54.2736 51.6392V51.6382Z" stroke="#02A653" stroke-width="2"/>
<path d="M35.3041 1.16602C36.5007 0.761311 37.759 1.10634 38.5717 2.0791C39.022 2.61846 39.2053 3.23449 39.2465 3.81934L39.2562 4.06738V4.06836C39.2608 5.13722 39.2642 6.20754 39.265 7.27832L39.2562 10.4932C39.2433 12.2254 37.9622 13.5764 36.2318 13.5557C34.5133 13.5344 33.3212 12.1407 33.3109 10.4648C33.3045 9.40005 33.3099 8.32931 33.3099 7.27539V7.27441C33.3108 6.19873 33.2992 5.08592 33.3138 3.98633L33.3256 3.74414C33.428 2.5479 34.1621 1.55324 35.3041 1.16699V1.16602Z" fill="black"/>
<path d="M35.3041 1.16602C36.5007 0.761311 37.759 1.10634 38.5717 2.0791C39.022 2.61846 39.2053 3.23449 39.2465 3.81934L39.2562 4.06738V4.06836C39.2608 5.13722 39.2642 6.20754 39.265 7.27832L39.2562 10.4932C39.2433 12.2254 37.9622 13.5764 36.2318 13.5557C34.5133 13.5344 33.3212 12.1407 33.3109 10.4648C33.3045 9.40005 33.3099 8.32931 33.3099 7.27539V7.27441C33.3108 6.19873 33.2992 5.08592 33.3138 3.98633L33.3256 3.74414C33.428 2.5479 34.1621 1.55324 35.3041 1.16699V1.16602Z" fill="#02A653"/>
<path d="M35.3041 1.16602C36.5007 0.761311 37.759 1.10634 38.5717 2.0791C39.022 2.61846 39.2053 3.23449 39.2465 3.81934L39.2562 4.06738V4.06836C39.2608 5.13722 39.2642 6.20754 39.265 7.27832L39.2562 10.4932C39.2433 12.2254 37.9622 13.5764 36.2318 13.5557C34.5133 13.5344 33.3212 12.1407 33.3109 10.4648C33.3045 9.40005 33.3099 8.32931 33.3099 7.27539V7.27441C33.3108 6.19873 33.2992 5.08592 33.3138 3.98633L33.3256 3.74414C33.428 2.5479 34.1621 1.55324 35.3041 1.16699V1.16602Z" stroke="#02A653" stroke-width="2"/>
</svg>
