<svg width="76" height="77" viewBox="0 0 76 77" fill="none" xmlns="http://www.w3.org/2000/svg">
<path d="M40.2246 76.0113C38.7001 76.0113 37.1763 76.0113 35.6518 76.0113C35.5635 75.9951 35.4759 75.9687 35.3868 75.9641C34.3288 75.9129 33.2779 75.7881 32.2331 75.6262C26.6358 74.7581 21.4763 72.7608 16.7765 69.594C16.4952 69.4041 16.2549 69.3972 15.9488 69.4847C11.397 70.7946 6.8436 72.0966 2.28947 73.3964C2.12361 73.4436 1.91977 73.5855 1.78569 73.4398C1.67021 73.3142 1.80972 73.1212 1.85777 72.9654C3.24587 68.4508 4.63474 63.9355 6.03756 59.4247C6.15149 59.0589 6.11584 58.7838 5.90735 58.4575C2.98235 53.8754 1.13156 48.8919 0.348768 43.5101C0.19686 42.463 0.121681 41.4089 0 40.3587C0 38.8342 0 37.3105 0 35.786C0.0162758 35.6721 0.0410771 35.5582 0.0480525 35.4435C0.161208 33.5074 0.440998 31.5931 0.87347 29.7043C2.66071 21.8919 6.50181 15.2583 12.4378 9.88265C19.1675 3.78928 27.1171 0.548069 36.1758 0.0520433C38.3032 -0.0642126 40.4346 0.0156164 42.5543 0.278355C46.7271 0.795306 50.7256 1.92454 54.4985 3.78308C62.755 7.85127 68.8181 14.0764 72.6592 22.4437C74.1434 25.6772 75.1068 29.0711 75.609 32.596C75.7601 33.6562 75.8392 34.7227 75.9539 35.786C75.9539 37.2842 75.9539 38.7831 75.9539 40.2812C75.9376 40.3952 75.912 40.5091 75.9058 40.6246C75.8097 42.2886 75.5966 43.9387 75.2486 45.567C73.0382 55.8991 67.5331 64.0145 58.748 69.8692C53.935 73.077 48.6175 74.9999 42.876 75.7331C41.9948 75.8455 41.1081 75.9191 40.2246 76.0113ZM66.4015 38.0344C66.4426 22.3616 53.6513 9.62921 38.0351 9.59898C22.3607 9.56875 9.54151 22.3313 9.54151 38.0336C9.54151 53.7111 22.3173 66.4776 37.9948 66.4675C53.6684 66.4582 66.4449 53.6825 66.4015 38.0344Z" fill="black"/>
<path d="M40.2246 76.0113C38.7001 76.0113 37.1763 76.0113 35.6518 76.0113C35.5635 75.9951 35.4759 75.9687 35.3868 75.9641C34.3288 75.9129 33.2779 75.7881 32.2331 75.6262C26.6358 74.7581 21.4763 72.7608 16.7765 69.594C16.4952 69.4041 16.2549 69.3972 15.9488 69.4847C11.397 70.7946 6.8436 72.0966 2.28947 73.3964C2.12361 73.4436 1.91977 73.5855 1.78569 73.4398C1.67021 73.3142 1.80972 73.1212 1.85777 72.9654C3.24587 68.4508 4.63474 63.9355 6.03756 59.4247C6.15149 59.0589 6.11584 58.7838 5.90735 58.4575C2.98235 53.8754 1.13156 48.8919 0.348768 43.5101C0.19686 42.463 0.121681 41.4089 0 40.3587C0 38.8342 0 37.3105 0 35.786C0.0162758 35.6721 0.0410771 35.5582 0.0480525 35.4435C0.161208 33.5074 0.440998 31.5931 0.87347 29.7043C2.66071 21.8919 6.50181 15.2583 12.4378 9.88265C19.1675 3.78928 27.1171 0.548069 36.1758 0.0520433C38.3032 -0.0642126 40.4346 0.0156164 42.5543 0.278355C46.7271 0.795306 50.7256 1.92454 54.4985 3.78308C62.755 7.85127 68.8181 14.0764 72.6592 22.4437C74.1434 25.6772 75.1068 29.0711 75.609 32.596C75.7601 33.6562 75.8392 34.7227 75.9539 35.786C75.9539 37.2842 75.9539 38.7831 75.9539 40.2812C75.9376 40.3952 75.912 40.5091 75.9058 40.6246C75.8097 42.2886 75.5966 43.9387 75.2486 45.567C73.0382 55.8991 67.5331 64.0145 58.748 69.8692C53.935 73.077 48.6175 74.9999 42.876 75.7331C41.9948 75.8455 41.1081 75.9191 40.2246 76.0113ZM66.4015 38.0344C66.4426 22.3616 53.6513 9.62921 38.0351 9.59898C22.3607 9.56875 9.54151 22.3313 9.54151 38.0336C9.54151 53.7111 22.3173 66.4776 37.9948 66.4675C53.6684 66.4582 66.4449 53.6825 66.4015 38.0344Z" fill="#02A653"/>
<path d="M37.9808 47.1311C36.5338 47.1311 35.0875 47.1202 33.6405 47.1388C33.277 47.1435 33.1639 47.0086 33.1693 46.6676C33.1949 45.1315 33.0918 43.5907 33.2344 42.0592C33.3886 40.4115 34.0366 38.9466 35.0387 37.6345C35.9416 36.4526 37.0577 35.4969 38.2427 34.6149C39.32 33.8136 40.4276 33.0517 41.4568 32.1852C41.477 32.1689 41.4963 32.1519 41.5157 32.1348C42.1939 31.5582 42.7496 30.9467 42.6093 29.9353C42.4659 28.8959 42.0916 28.0209 41.1917 27.4296C40.2927 26.8382 39.2789 26.6754 38.2319 26.694C37.8095 26.7018 37.3832 26.7483 36.9662 26.8514C35.8486 27.1273 35.041 27.8116 34.4272 28.7556C33.811 29.7035 33.4832 30.7614 33.2832 31.8605C33.2197 32.2108 33.1042 32.3201 32.7252 32.2813C31.3394 32.141 29.949 32.0434 28.5594 31.9372C27.0674 31.8233 25.5739 31.7155 24.0812 31.6086C23.8022 31.5884 23.6526 31.4815 23.6983 31.1722C24.4121 26.3236 26.3373 22.1663 30.5365 19.3428C32.5756 17.9717 34.8666 17.3168 37.3103 17.1471C40.257 16.9433 43.0542 17.461 45.6366 18.9111C49.2212 20.9239 51.3099 24.0171 52.0283 28.0434C52.5213 30.8048 52.1903 33.4485 50.7573 35.8992C49.7443 37.6314 48.343 39.0172 46.7581 40.2255C45.587 41.1175 44.4128 42.0065 43.2301 42.8831C42.91 43.1202 42.772 43.3938 42.7829 43.7992C42.8077 44.754 42.7821 45.7104 42.7938 46.6668C42.7976 47.0086 42.6845 47.1435 42.3218 47.1388C40.8748 47.121 39.4278 47.1311 37.9808 47.1311Z" fill="black"/>
<path d="M37.9808 47.1311C36.5338 47.1311 35.0875 47.1202 33.6405 47.1388C33.277 47.1435 33.1639 47.0086 33.1693 46.6676C33.1949 45.1315 33.0918 43.5907 33.2344 42.0592C33.3886 40.4115 34.0366 38.9466 35.0387 37.6345C35.9416 36.4526 37.0577 35.4969 38.2427 34.6149C39.32 33.8136 40.4276 33.0517 41.4568 32.1852C41.477 32.1689 41.4963 32.1519 41.5157 32.1348C42.1939 31.5582 42.7496 30.9467 42.6093 29.9353C42.4659 28.8959 42.0916 28.0209 41.1917 27.4296C40.2927 26.8382 39.2789 26.6754 38.2319 26.694C37.8095 26.7018 37.3832 26.7483 36.9662 26.8514C35.8486 27.1273 35.041 27.8116 34.4272 28.7556C33.811 29.7035 33.4832 30.7614 33.2832 31.8605C33.2197 32.2108 33.1042 32.3201 32.7252 32.2813C31.3394 32.141 29.949 32.0434 28.5594 31.9372C27.0674 31.8233 25.5739 31.7155 24.0812 31.6086C23.8022 31.5884 23.6526 31.4815 23.6983 31.1722C24.4121 26.3236 26.3373 22.1663 30.5365 19.3428C32.5756 17.9717 34.8666 17.3168 37.3103 17.1471C40.257 16.9433 43.0542 17.461 45.6366 18.9111C49.2212 20.9239 51.3099 24.0171 52.0283 28.0434C52.5213 30.8048 52.1903 33.4485 50.7573 35.8992C49.7443 37.6314 48.343 39.0172 46.7581 40.2255C45.587 41.1175 44.4128 42.0065 43.2301 42.8831C42.91 43.1202 42.772 43.3938 42.7829 43.7992C42.8077 44.754 42.7821 45.7104 42.7938 46.6668C42.7976 47.0086 42.6845 47.1435 42.3218 47.1388C40.8748 47.121 39.4278 47.1311 37.9808 47.1311Z" fill="#02A653"/>
<path d="M37.9374 59.9145C36.5299 59.9145 35.1225 59.9153 33.715 59.9137C33.2035 59.913 33.1748 59.892 33.1748 59.4007C33.1717 56.547 33.1771 53.6933 33.1686 50.8388C33.1678 50.4676 33.2763 50.3195 33.6778 50.3211C36.5447 50.3366 39.4115 50.3366 42.2784 50.3211C42.6822 50.3187 42.7868 50.4707 42.786 50.8403C42.7775 53.694 42.7775 56.5477 42.786 59.4022C42.7868 59.7735 42.6783 59.9277 42.2768 59.9223C40.8298 59.9021 39.3836 59.9145 37.9374 59.9145Z" fill="black"/>
<path d="M37.9374 59.9145C36.5299 59.9145 35.1225 59.9153 33.715 59.9137C33.2035 59.913 33.1748 59.892 33.1748 59.4007C33.1717 56.547 33.1771 53.6933 33.1686 50.8388C33.1678 50.4676 33.2763 50.3195 33.6778 50.3211C36.5447 50.3366 39.4115 50.3366 42.2784 50.3211C42.6822 50.3187 42.7868 50.4707 42.786 50.8403C42.7775 53.694 42.7775 56.5477 42.786 59.4022C42.7868 59.7735 42.6783 59.9277 42.2768 59.9223C40.8298 59.9021 39.3836 59.9145 37.9374 59.9145Z" fill="#02A653"/>
</svg>
